#N canvas 0 0 1920 1007 10;
#X msg 7 6 \; pd dsp 1;
#X obj 112 79 bng 15 250 50 0 empty empty empty 17 7 0 10 -262144 -1
-1;
#X obj 112 161 phasor~;
#X obj 36 267 *~;
#X obj 109 240 vsl 15 40 0 1 0 0 empty empty empty 0 -9 0 10 -261234
-1 -1 0 1;
#X floatatom 78 162 5 0 0 0 - - -;
#X obj 36 215 tabread4~ channelL;
#X obj 90 188 *~;
#X floatatom 172 140 5 0 1 0 - - -;
#X obj 175 124 hsl 128 8 -0.05 0.05 0 0 empty empty empty -2 -8 0 10
-4032 -1 -1 0 1;
#N canvas 1053 351 450 300 wrap1 0;
#X obj 67 31 r wrap1;
#X obj 186 116 s sf1c;
#X obj 67 56 openpanel;
#X obj 67 98 soundfiler;
#X obj 67 123 expr 44100/$f1;
#X msg 67 77 read -resize \$1 channelL channelR;
#X obj 67 147 outlet;
#N canvas 0 0 450 300 (subpatch) 0;
#X array channelL 1.02351e+007 float 2;
#X coords 0 1 1.02351e+007 -1 200 100 1 0 0;
#X restore 280 95 graph;
#N canvas 0 0 450 300 (subpatch) 0;
#X array channelR 1.02351e+007 float 2;
#X coords 0 1 1.02351e+007 -1 200 100 1 0 0;
#X restore 281 197 graph;
#X text 149 30 soundfiler number atom needs to be sent to a multiplier
from phasor~;
#X connect 0 0 2 0;
#X connect 2 0 5 0;
#X connect 3 0 4 0;
#X connect 3 0 1 0;
#X connect 4 0 6 0;
#X connect 5 0 3 0;
#X restore 112 119 pd wrap1;
#X obj 112 100 s wrap1;
#X obj 79 142 r sf1c;
#X obj 198 217 tabread4~ channelR;
#X obj 199 275 *~;
#X obj 36 292 s~ ch1L;
#X obj 198 296 s~ ch1R;
#N canvas 373 560 450 300 master 0;
#X obj 25 49 dac~ 1 2;
#X obj 25 14 r~ ch1L;
#X obj 71 13 r~ ch1R;
#X obj 129 41 r~ ch2L;
#X obj 175 40 r~ ch2R;
#X connect 1 0 0 0;
#X connect 2 0 0 1;
#X connect 3 0 0 0;
#X connect 4 0 0 1;
#X restore 36 374 pd master;
#X obj 723 110 s wrap2;
#N canvas 1346 395 450 300 wrap2 0;
#X obj 67 56 openpanel;
#X obj 67 98 soundfiler;
#X obj 67 123 expr 44100/$f1;
#X obj 67 147 outlet;
#X obj 67 31 r wrap2;
#X obj 186 116 s sf2c;
#X msg 67 77 read -resize \$1 channel2L channel2R;
#N canvas 0 0 450 300 (subpatch) 0;
#X array channel2L 8.61488e+006 float 2;
#X coords 0 1 8.61488e+006 -1 200 50 1 0 0;
#X restore 68 176 graph;
#N canvas 0 0 450 300 (subpatch) 0;
#X array channel2R 8.61488e+006 float 2;
#X coords 0 1 8.61488e+006 -1 200 50 1 0 0;
#X restore 69 226 graph;
#X connect 0 0 6 0;
#X connect 1 0 2 0;
#X connect 1 0 5 0;
#X connect 2 0 3 0;
#X connect 4 0 0 0;
#X connect 6 0 1 0;
#X restore 722 138 pd wrap2;
#X obj 723 91 bng 15 250 50 0 empty empty empty 17 7 0 10 -262144 -1
-1;
#X obj 722 188 phasor~;
#X obj 646 294 *~;
#X obj 719 267 vsl 15 40 0 1 0 0 empty empty empty 0 -9 0 10 -261234
-1 -1 0 1;
#X floatatom 688 189 5 0 0 0 - - -;
#X obj 700 215 *~;
#X floatatom 782 167 5 0 1 0 - - -;
#X obj 809 302 *~;
#X obj 689 169 r sf2c;
#X obj 785 149 hsl 128 8 -0.05 0.05 0 0 empty empty empty -2 -8 0 10
-4032 -1 -1 0 1;
#X obj 646 319 s~ ch2L;
#X obj 808 323 s~ ch2R;
#X obj 646 242 tabread4~ channel2L;
#X obj 808 244 tabread4~ channel2R;
#X obj 373 180 hsl 128 15 0 1000 0 0 empty empty empty -2 -8 0 10 -232576
-1 -1 0 1;
#X text 127 187 amp env here;
#X obj 373 199 hsl 128 15 0 1000 0 0 empty empty empty -2 -8 0 10 -232576
-1 -1 0 1;
#X floatatom 397 93 5 0 0 0 - - -;
#X obj 370 76 tgl 15 0 empty empty empty 17 7 0 10 -262144 -1 -1 0
1;
#X obj 373 219 hsl 128 15 0 1000 0 0 empty empty empty -2 -8 0 10 -232576
-1 -1 0 1;
#X obj 373 238 hsl 128 15 0 1000 0 0 empty empty empty -2 -8 0 10 -232576
-1 -1 0 1;
#N canvas 986 220 567 528 metro1 0;
#X obj 16 60 metro;
#X obj 16 103 f;
#X obj 16 125 + 1;
#X obj 16 82 bng 15 250 50 0 empty empty empty 17 7 0 10 -262144 -1
-1;
#X floatatom 44 120 5 0 0 0 - - -;
#X floatatom 44 163 5 0 0 0 - - -;
#X obj 16 35 inlet;
#X obj 55 35 r count1;
#X obj 44 141 % \$1;
#X obj 80 221 sel 0 1 2 3 4 5 6 7 8 9 10 11 12 13 14 15 16;
#X obj 80 257 s 01ch01;
#X obj 95 276 s 01ch02;
#X obj 110 295 s 01ch03;
#X obj 126 314 s 01ch04;
#X obj 107 124 r modo1;
#X obj 141 332 s 01ch05;
#X obj 156 352 s 01ch06;
#X obj 172 369 s 01ch07;
#X obj 187 389 s 01ch08;
#X obj 202 408 s 01ch09;
#X obj 218 426 s 01ch10;
#X obj 233 444 s 01ch11;
#X obj 248 466 s 01ch12;
#X obj 264 484 s 01ch13;
#X obj 279 503 s 01ch14;
#X obj 294 521 s 01ch15;
#X obj 310 540 s 01ch16;
#X connect 0 0 3 0;
#X connect 1 0 2 0;
#X connect 1 0 4 0;
#X connect 2 0 1 1;
#X connect 3 0 1 0;
#X connect 4 0 8 0;
#X connect 5 0 9 0;
#X connect 6 0 0 0;
#X connect 7 0 0 1;
#X connect 8 0 5 0;
#X connect 9 0 10 0;
#X connect 9 1 11 0;
#X connect 9 2 12 0;
#X connect 9 3 13 0;
#X connect 9 4 15 0;
#X connect 9 5 16 0;
#X connect 9 6 17 0;
#X connect 9 7 18 0;
#X connect 9 8 19 0;
#X connect 9 9 20 0;
#X connect 9 10 21 0;
#X connect 9 11 22 0;
#X connect 9 12 23 0;
#X connect 9 13 24 0;
#X connect 9 14 25 0;
#X connect 9 15 26 0;
#X connect 14 0 8 1;
#X restore 370 134 pd metro1;
#X obj 397 112 s count1;
#X obj 367 487 s pha1;
#X obj 207 140 r pha1;
#X obj 997 190 hsl 128 15 0 1000 0 0 empty empty empty -2 -8 0 10 -262144
-1 -1 0 1;
#X obj 997 209 hsl 128 15 0 1000 0 0 empty empty empty -2 -8 0 10 -262144
-1 -1 0 1;
#X floatatom 1021 103 5 0 0 0 - - -;
#X obj 994 79 tgl 15 0 empty empty empty 17 7 0 10 -262144 -1 -1 0
1;
#X obj 997 229 hsl 128 15 0 1000 0 0 empty empty empty -2 -8 0 10 -262144
-1 -1 0 1;
#X obj 997 248 hsl 128 15 0 1000 0 0 empty empty empty -2 -8 0 10 -262144
-1 -1 0 1;
#X obj 994 495 s pha2;
#X obj 818 171 r pha2;
#X obj 1021 122 s count2;
#N canvas 1091 464 450 351 metro2 0;
#X obj 16 60 metro;
#X obj 16 103 f;
#X obj 16 125 + 1;
#X obj 16 82 bng 15 250 50 0 empty empty empty 17 7 0 10 -262144 -1
-1;
#X floatatom 44 120 5 0 0 0 - - -;
#X floatatom 44 163 5 0 0 0 - - -;
#X obj 16 35 inlet;
#X obj 55 35 r count2;
#X obj 87 124 r modo2;
#X obj 44 141 % \$2;
#X obj 44 192 sel 0 1 2 3 4 5 6 7 8 9 10 11 12 13 14 15 16;
#X obj 44 210 s 02ch01;
#X obj 59 228 s 02ch02;
#X obj 74 246 s 02ch03;
#X obj 90 263 s 02ch04;
#X obj 120 305 s 02ch06;
#X obj 105 285 s 02ch05;
#X obj 136 322 s 02ch07;
#X obj 151 342 s 02ch08;
#X obj 166 361 s 02ch09;
#X obj 182 379 s 02ch10;
#X obj 197 397 s 02ch11;
#X obj 212 419 s 02ch12;
#X obj 228 437 s 02ch13;
#X obj 243 456 s 02ch14;
#X obj 258 474 s 02ch15;
#X obj 274 493 s 02ch16;
#X connect 0 0 3 0;
#X connect 1 0 2 0;
#X connect 1 0 4 0;
#X connect 2 0 1 1;
#X connect 3 0 1 0;
#X connect 4 0 9 0;
#X connect 5 0 10 0;
#X connect 6 0 0 0;
#X connect 7 0 0 1;
#X connect 8 0 9 1;
#X connect 9 0 5 0;
#X connect 10 0 11 0;
#X connect 10 1 12 0;
#X connect 10 2 13 0;
#X connect 10 3 14 0;
#X connect 10 4 16 0;
#X connect 10 5 15 0;
#X connect 10 6 17 0;
#X connect 10 7 18 0;
#X connect 10 8 19 0;
#X connect 10 9 20 0;
#X connect 10 10 21 0;
#X connect 10 11 22 0;
#X connect 10 12 23 0;
#X connect 10 13 24 0;
#X connect 10 14 25 0;
#X connect 10 15 26 0;
#X restore 994 144 pd metro2;
#X obj 320 163 r 01ch01;
#X obj 318 182 r 01ch02;
#X obj 318 202 r 01ch03;
#X obj 318 220 r 01ch04;
#X msg 719 311 0;
#X msg 109 283 0;
#X floatatom 456 113 5 0 16 0 - - -;
#X obj 456 133 s modo1;
#X floatatom 1082 115 5 0 16 0 - - -;
#X obj 1082 143 s modo2;
#X obj 940 189 r 02ch01;
#X obj 938 208 r 02ch02;
#X obj 938 228 r 02ch03;
#X obj 938 246 r 02ch04;
#X obj 372 258 hsl 128 15 0 1000 0 0 empty empty empty -2 -8 0 10 -262144
-1 -1 0 1;
#X obj 372 277 hsl 128 15 0 1000 0 0 empty empty empty -2 -8 0 10 -262144
-1 -1 0 1;
#X obj 372 297 hsl 128 15 0 1000 0 0 empty empty empty -2 -8 0 10 -262144
-1 -1 0 1;
#X obj 372 316 hsl 128 15 0 1000 0 0 empty empty empty -2 -8 0 10 -262144
-1 -1 0 1;
#X obj 319 241 r 01ch05;
#X obj 317 260 r 01ch06;
#X obj 317 280 r 01ch07;
#X obj 317 299 r 01ch08;
#X obj 371 336 hsl 128 15 0 1000 0 0 empty empty empty -2 -8 0 10 -232576
-1 -1 0 1;
#X obj 371 355 hsl 128 15 0 1000 0 0 empty empty empty -2 -8 0 10 -232576
-1 -1 0 1;
#X obj 371 375 hsl 128 15 0 1000 0 0 empty empty empty -2 -8 0 10 -232576
-1 -1 0 1;
#X obj 371 394 hsl 128 15 0 1000 0 0 empty empty empty -2 -8 0 10 -232576
-1 -1 0 1;
#X obj 370 414 hsl 128 15 0 1000 0 0 empty empty empty -2 -8 0 10 -262144
-1 -1 0 1;
#X obj 370 433 hsl 128 15 0 1000 0 0 empty empty empty -2 -8 0 10 -262144
-1 -1 0 1;
#X obj 370 453 hsl 128 15 0 1000 0 0 empty empty empty -2 -8 0 10 -262144
-1 -1 0 1;
#X obj 318 319 r 01ch09;
#X obj 316 338 r 01ch10;
#X obj 316 358 r 01ch11;
#X obj 316 377 r 01ch12;
#X obj 317 397 r 01ch13;
#X obj 315 416 r 01ch14;
#X obj 315 436 r 01ch15;
#X obj 370 472 hsl 128 15 0 1000 0 0 empty empty empty -2 -8 0 10 -262144
-1 -1 0 1;
#X obj 315 455 r 01ch16;
#X obj 999 265 hsl 128 15 0 1000 0 0 empty empty empty -2 -8 0 10 -262144
-1 -1 0 1;
#X obj 999 284 hsl 128 15 0 1000 0 0 empty empty empty -2 -8 0 10 -262144
-1 -1 0 1;
#X obj 999 304 hsl 128 15 0 1000 0 0 empty empty empty -2 -8 0 10 -262144
-1 -1 0 1;
#X obj 999 323 hsl 128 15 0 1000 0 0 empty empty empty -2 -8 0 10 -262144
-1 -1 0 1;
#X obj 998 343 hsl 128 15 0 1000 0 0 empty empty empty -2 -8 0 10 -262144
-1 -1 0 1;
#X obj 998 362 hsl 128 15 0 1000 0 0 empty empty empty -2 -8 0 10 -262144
-1 -1 0 1;
#X obj 998 382 hsl 128 15 0 1000 0 0 empty empty empty -2 -8 0 10 -262144
-1 -1 0 1;
#X obj 998 401 hsl 128 15 0 1000 0 0 empty empty empty -2 -8 0 10 -262144
-1 -1 0 1;
#X obj 997 421 hsl 128 15 0 1000 0 0 empty empty empty -2 -8 0 10 -262144
-1 -1 0 1;
#X obj 997 440 hsl 128 15 0 1000 0 0 empty empty empty -2 -8 0 10 -262144
-1 -1 0 1;
#X obj 997 460 hsl 128 15 0 1000 0 0 empty empty empty -2 -8 0 10 -262144
-1 -1 0 1;
#X obj 997 479 hsl 128 15 0 1000 0 0 empty empty empty -2 -8 0 10 -262144
-1 -1 0 1;
#X obj 938 265 r 02ch05;
#X obj 936 284 r 02ch06;
#X obj 936 304 r 02ch07;
#X obj 936 322 r 02ch08;
#X obj 937 343 r 02ch09;
#X obj 935 362 r 02ch10;
#X obj 935 382 r 02ch11;
#X obj 935 400 r 02ch12;
#X obj 936 421 r 02ch13;
#X obj 934 440 r 02ch14;
#X obj 934 460 r 02ch15;
#X obj 934 478 r 02ch16;
#X floatatom 643 127 5 0 0 0 - - -;
#X msg 644 102 1000;
#N canvas 393 313 450 531 rand1 0;
#X obj 94 45 bng 15 250 50 0 empty empty empty 17 7 0 10 -262144 -1
-1;
#X obj 88 89 random 1000;
#X obj 160 89 random 1000;
#X obj 231 89 random 1000;
#X obj 303 89 random 1000;
#X obj 88 134 s 01b1;
#X obj 160 137 s 01b2;
#X obj 231 137 s 01b3;
#X obj 303 137 s 01b4;
#X obj 87 161 random 1000;
#X obj 159 161 random 1000;
#X obj 230 161 random 1000;
#X obj 302 161 random 1000;
#X obj 87 206 s 01b5;
#X obj 159 209 s 01b6;
#X obj 230 209 s 01b7;
#X obj 302 209 s 01b8;
#X obj 87 229 random 1000;
#X obj 159 229 random 1000;
#X obj 230 229 random 1000;
#X obj 302 229 random 1000;
#X obj 86 301 random 1000;
#X obj 158 301 random 1000;
#X obj 229 301 random 1000;
#X obj 301 301 random 1000;
#X obj 87 274 s 01b9;
#X obj 159 277 s 01b10;
#X obj 230 277 s 01b11;
#X obj 302 277 s 01b12;
#X obj 86 346 s 01b13;
#X obj 158 349 s 01b14;
#X obj 229 349 s 01b15;
#X obj 301 349 s 01b16;
#X obj 163 18 r rand1bng;
#X connect 0 0 1 0;
#X connect 0 0 9 0;
#X connect 0 0 2 0;
#X connect 0 0 3 0;
#X connect 0 0 4 0;
#X connect 0 0 10 0;
#X connect 0 0 11 0;
#X connect 0 0 12 0;
#X connect 0 0 17 0;
#X connect 0 0 18 0;
#X connect 0 0 19 0;
#X connect 0 0 20 0;
#X connect 0 0 21 0;
#X connect 0 0 22 0;
#X connect 0 0 23 0;
#X connect 0 0 24 0;
#X connect 1 0 5 0;
#X connect 2 0 6 0;
#X connect 3 0 7 0;
#X connect 4 0 8 0;
#X connect 9 0 13 0;
#X connect 10 0 14 0;
#X connect 11 0 15 0;
#X connect 12 0 16 0;
#X connect 17 0 25 0;
#X connect 18 0 26 0;
#X connect 19 0 27 0;
#X connect 20 0 28 0;
#X connect 21 0 29 0;
#X connect 22 0 30 0;
#X connect 23 0 31 0;
#X connect 24 0 32 0;
#X connect 33 0 0 0;
#X restore 192 661 pd rand1;
#X obj 507 163 r 01b1;
#X obj 507 183 r 01b2;
#X obj 507 202 r 01b3;
#X obj 506 221 r 01b4;
#X obj 505 241 r 01b5;
#X obj 505 260 r 01b6;
#X obj 504 280 r 01b7;
#X obj 504 299 r 01b8;
#X obj 503 319 r 01b9;
#X obj 503 338 r 01b10;
#X obj 503 358 r 01b11;
#X obj 502 377 r 01b12;
#X obj 503 397 r 01b13;
#X obj 502 416 r 01b14;
#X obj 502 436 r 01b15;
#X obj 501 455 r 01b16;
#X obj 192 643 s rand1bng;
#X obj 192 628 bng 15 250 50 0 empty empty empty 17 7 0 10 -262144
-1 -1;
#X obj 1138 171 r 02b1;
#X obj 1138 191 r 02b2;
#X obj 1138 211 r 02b3;
#X obj 1137 229 r 02b4;
#X obj 1136 249 r 02b5;
#X obj 1136 268 r 02b6;
#X obj 1135 288 r 02b7;
#X obj 1136 308 r 02b8;
#X obj 1134 327 r 02b9;
#X obj 1134 346 r 02b10;
#X obj 1134 366 r 02b11;
#X obj 1133 385 r 02b12;
#X obj 1134 405 r 02b13;
#X obj 1133 424 r 02b14;
#X obj 1132 444 r 02b15;
#X obj 1132 463 r 02b16;
#X obj 931 634 bng 15 250 50 0 empty empty empty 17 7 0 10 -262144
-1 -1;
#N canvas 393 313 450 531 rand2 0;
#X obj 94 45 bng 15 250 50 0 empty empty empty 17 7 0 10 -262144 -1
-1;
#X obj 88 89 random 1000;
#X obj 160 89 random 1000;
#X obj 231 89 random 1000;
#X obj 303 89 random 1000;
#X obj 87 161 random 1000;
#X obj 159 161 random 1000;
#X obj 230 161 random 1000;
#X obj 302 161 random 1000;
#X obj 87 229 random 1000;
#X obj 159 229 random 1000;
#X obj 230 229 random 1000;
#X obj 302 229 random 1000;
#X obj 86 301 random 1000;
#X obj 158 301 random 1000;
#X obj 229 301 random 1000;
#X obj 301 301 random 1000;
#X obj 163 18 r rand2bng;
#X obj 88 134 s 02b1;
#X obj 161 137 s 02b2;
#X obj 231 137 s 02b3;
#X obj 303 137 s 02b4;
#X obj 87 206 s 02b5;
#X obj 159 209 s 02b6;
#X obj 230 209 s 02b7;
#X obj 302 209 s 02b8;
#X obj 87 274 s 02b9;
#X obj 159 277 s 02b10;
#X obj 230 277 s 02b11;
#X obj 302 277 s 02b12;
#X obj 86 346 s 02b13;
#X obj 158 349 s 02b14;
#X obj 229 349 s 02b15;
#X obj 301 349 s 02b16;
#X connect 0 0 1 0;
#X connect 0 0 5 0;
#X connect 0 0 2 0;
#X connect 0 0 3 0;
#X connect 0 0 4 0;
#X connect 0 0 6 0;
#X connect 0 0 7 0;
#X connect 0 0 8 0;
#X connect 0 0 9 0;
#X connect 0 0 10 0;
#X connect 0 0 11 0;
#X connect 0 0 12 0;
#X connect 0 0 13 0;
#X connect 0 0 14 0;
#X connect 0 0 15 0;
#X connect 0 0 16 0;
#X connect 1 0 18 0;
#X connect 2 0 19 0;
#X connect 3 0 20 0;
#X connect 4 0 21 0;
#X connect 5 0 22 0;
#X connect 6 0 23 0;
#X connect 7 0 24 0;
#X connect 8 0 25 0;
#X connect 9 0 26 0;
#X connect 10 0 27 0;
#X connect 11 0 28 0;
#X connect 12 0 29 0;
#X connect 13 0 30 0;
#X connect 14 0 31 0;
#X connect 15 0 32 0;
#X connect 16 0 33 0;
#X connect 17 0 0 0;
#X restore 931 667 pd rand2;
#X obj 931 649 s rand2bng;
#X msg 456 91 8;
#X msg 1081 94 8;
#X connect 1 0 11 0;
#X connect 2 0 7 0;
#X connect 3 0 15 0;
#X connect 4 0 3 1;
#X connect 4 0 14 1;
#X connect 5 0 7 1;
#X connect 6 0 3 0;
#X connect 7 0 6 0;
#X connect 7 0 13 0;
#X connect 8 0 2 0;
#X connect 9 0 8 0;
#X connect 10 0 2 0;
#X connect 10 0 8 0;
#X connect 12 0 5 0;
#X connect 13 0 14 0;
#X connect 14 0 16 0;
#X connect 19 0 21 0;
#X connect 19 0 26 0;
#X connect 20 0 18 0;
#X connect 21 0 25 0;
#X connect 22 0 30 0;
#X connect 23 0 22 1;
#X connect 23 0 27 1;
#X connect 24 0 25 1;
#X connect 25 0 32 0;
#X connect 25 0 33 0;
#X connect 26 0 21 0;
#X connect 27 0 31 0;
#X connect 28 0 24 0;
#X connect 29 0 26 0;
#X connect 32 0 22 0;
#X connect 33 0 27 0;
#X connect 34 0 43 0;
#X connect 36 0 43 0;
#X connect 37 0 42 0;
#X connect 38 0 41 0;
#X connect 39 0 43 0;
#X connect 40 0 43 0;
#X connect 44 0 2 1;
#X connect 45 0 51 0;
#X connect 46 0 51 0;
#X connect 47 0 53 0;
#X connect 48 0 54 0;
#X connect 49 0 51 0;
#X connect 50 0 51 0;
#X connect 52 0 21 1;
#X connect 55 0 34 0;
#X connect 56 0 36 0;
#X connect 57 0 39 0;
#X connect 58 0 40 0;
#X connect 59 0 22 1;
#X connect 59 0 27 1;
#X connect 60 0 3 1;
#X connect 60 0 14 1;
#X connect 61 0 62 0;
#X connect 63 0 64 0;
#X connect 65 0 45 0;
#X connect 66 0 46 0;
#X connect 67 0 49 0;
#X connect 68 0 50 0;
#X connect 69 0 43 0;
#X connect 70 0 43 0;
#X connect 71 0 43 0;
#X connect 72 0 43 0;
#X connect 73 0 69 0;
#X connect 74 0 70 0;
#X connect 75 0 71 0;
#X connect 76 0 72 0;
#X connect 77 0 43 0;
#X connect 78 0 43 0;
#X connect 79 0 43 0;
#X connect 80 0 43 0;
#X connect 81 0 43 0;
#X connect 82 0 43 0;
#X connect 83 0 43 0;
#X connect 84 0 77 0;
#X connect 85 0 78 0;
#X connect 86 0 79 0;
#X connect 87 0 80 0;
#X connect 88 0 81 0;
#X connect 89 0 82 0;
#X connect 90 0 83 0;
#X connect 91 0 43 0;
#X connect 92 0 91 0;
#X connect 93 0 51 0;
#X connect 94 0 51 0;
#X connect 95 0 51 0;
#X connect 96 0 51 0;
#X connect 97 0 51 0;
#X connect 98 0 51 0;
#X connect 99 0 51 0;
#X connect 100 0 51 0;
#X connect 101 0 51 0;
#X connect 102 0 51 0;
#X connect 103 0 51 0;
#X connect 104 0 51 0;
#X connect 105 0 93 0;
#X connect 106 0 94 0;
#X connect 107 0 95 0;
#X connect 108 0 96 0;
#X connect 109 0 97 0;
#X connect 110 0 98 0;
#X connect 111 0 99 0;
#X connect 112 0 100 0;
#X connect 113 0 101 0;
#X connect 114 0 102 0;
#X connect 115 0 103 0;
#X connect 116 0 104 0;
#X connect 117 0 37 0;
#X connect 117 0 47 0;
#X connect 118 0 117 0;
#X connect 120 0 34 0;
#X connect 121 0 36 0;
#X connect 122 0 39 0;
#X connect 123 0 40 0;
#X connect 124 0 69 0;
#X connect 125 0 70 0;
#X connect 126 0 71 0;
#X connect 127 0 72 0;
#X connect 128 0 77 0;
#X connect 129 0 78 0;
#X connect 130 0 79 0;
#X connect 131 0 80 0;
#X connect 132 0 81 0;
#X connect 133 0 82 0;
#X connect 134 0 83 0;
#X connect 135 0 91 0;
#X connect 137 0 136 0;
#X connect 138 0 45 0;
#X connect 139 0 46 0;
#X connect 140 0 49 0;
#X connect 141 0 50 0;
#X connect 142 0 93 0;
#X connect 143 0 94 0;
#X connect 144 0 95 0;
#X connect 145 0 96 0;
#X connect 146 0 97 0;
#X connect 147 0 98 0;
#X connect 148 0 99 0;
#X connect 149 0 100 0;
#X connect 150 0 101 0;
#X connect 151 0 102 0;
#X connect 152 0 103 0;
#X connect 153 0 104 0;
#X connect 154 0 156 0;
#X connect 157 0 61 0;
#X connect 158 0 63 0;
