#N canvas 803 371 645 445 10;
#X msg 110 63 \; pd dsp 1;
#X msg 174 63 \; pd dsp 0;
#N canvas 843 236 450 300 vco 0;
#X floatatom 104 55 5 0 0 0 - - -;
#X obj 104 107 s~ vco01;
#X msg 103 37 0;
#X msg 133 36 51;
#X obj 104 76 osc~;
#X connect 0 0 4 0;
#X connect 2 0 0 0;
#X connect 3 0 0 0;
#X connect 4 0 1 0;
#X restore 39 65 pd vco 1;
#X obj 39 119 r~ vco01;
#N canvas 822 582 450 300 dac 1;
#X obj 61 143 dac~;
#X obj 60 75 r~ dac;
#X msg 119 109 0;
#X obj 119 91 r vol0;
#X obj 167 92 r vol05;
#X msg 167 109 0.5;
#X obj 61 126 *~;
#X connect 1 0 6 0;
#X connect 2 0 6 1;
#X connect 3 0 2 0;
#X connect 4 0 5 0;
#X connect 5 0 6 1;
#X connect 6 0 0 0;
#X connect 6 0 0 1;
#X restore 39 82 pd dac;
#X obj 38 181 s~ dac;
#N canvas 318 286 614 542 loop01 1;
#X obj 13 23 adc~;
#X obj 6 38 writesf~ 2;
#X msg 82 23 open pdtemp.wav;
#X msg 43 22 start;
#X msg 6 4 stop;
#X obj 37 5 r loop01st;
#X obj 6 -19 r stop01;
#N canvas 0 22 450 278 (subpatch) 0;
#X array array1 30976 float 4;
#X coords 0 1 30975 -1 200 140 1;
#X restore 268 175 graph;
#X obj 5 138 soundfiler;
#X floatatom 5 187 10 0 0 0 - - -;
#X msg 6 95 read -resize pdtemp.wav array1;
#X obj 5 240 phasor~;
#X obj 5 260 *~;
#X obj 4 280 tabread4~ array1;
#X obj 3 316 s~ loop01;
#X obj 5 203 expr 44100/$f1;
#X msg 7 221 0;
#X obj 5 60 r play01;
#X obj 5 80 bng 15 250 50 0 empty empty empty 17 7 0 10 -262144 -1
-1;
#X obj 92 218 r speed01;
#X obj 180 257 r end01;
#X connect 0 0 1 0;
#X connect 0 1 1 1;
#X connect 2 0 1 0;
#X connect 2 0 3 0;
#X connect 3 0 1 0;
#X connect 4 0 1 0;
#X connect 5 0 2 0;
#X connect 6 0 4 0;
#X connect 8 0 9 0;
#X connect 9 0 12 1;
#X connect 9 0 15 0;
#X connect 10 0 8 0;
#X connect 11 0 12 0;
#X connect 12 0 13 0;
#X connect 13 0 14 0;
#X connect 15 0 11 0;
#X connect 16 0 11 0;
#X connect 17 0 18 0;
#X connect 18 0 10 0;
#X connect 19 0 11 0;
#X connect 20 0 16 0;
#X restore 280 60 pd loop01;
#X obj 114 98 r~ loop01;
#X msg 281 79 start;
#X obj 282 104 s loop01st;
#X msg 346 81 stop;
#X obj 346 104 s stop01;
#N canvas 1108 471 450 300 loop02 0;
#X obj 23 33 adc~;
#X obj 16 48 writesf~ 2;
#X msg 53 32 start;
#X msg 16 14 stop;
#X obj 15 -3 r stop02;
#X obj 47 15 r loop02st;
#X msg 92 34 open pdtemp2.wav;
#X obj 15 148 soundfiler;
#X floatatom 15 197 10 0 0 0 - - -;
#X obj 15 250 phasor~;
#X obj 15 270 *~;
#X obj 15 213 expr 44100/$f1;
#X msg 17 231 0;
#X obj 15 90 bng 15 250 50 0 empty empty empty 17 7 0 10 -262144 -1
-1;
#X msg 15 105 read -resize pdtemp2.wav array2;
#X obj 15 70 r play02;
#X obj 102 228 r speed02;
#X obj 14 290 tabread4~ array2;
#X obj 13 326 s~ loop02;
#N canvas 0 22 450 278 (subpatch) 0;
#X array array2 26752 float 2;
#X coords 0 1 26752 -1 200 140 1;
#X restore 227 114 graph;
#X obj 189 264 r end02;
#X connect 0 0 1 0;
#X connect 0 1 1 1;
#X connect 2 0 1 0;
#X connect 3 0 1 0;
#X connect 4 0 3 0;
#X connect 5 0 6 0;
#X connect 6 0 1 0;
#X connect 6 0 2 0;
#X connect 7 0 8 0;
#X connect 8 0 10 1;
#X connect 8 0 11 0;
#X connect 9 0 10 0;
#X connect 10 0 17 0;
#X connect 11 0 9 0;
#X connect 12 0 9 0;
#X connect 13 0 14 0;
#X connect 14 0 7 0;
#X connect 15 0 13 0;
#X connect 16 0 9 0;
#X connect 17 0 18 0;
#X connect 20 0 12 0;
#X restore 409 67 pd loop02;
#X msg 409 86 start;
#X msg 473 86 stop;
#X obj 409 104 s loop02st;
#X obj 474 104 s stop02;
#X obj 114 116 r~ loop02;
#X obj 38 217 s vol0;
#X obj 38 200 bng 15 250 50 0 empty empty empty 17 7 0 10 -262144 -1
-1;
#X obj 81 200 bng 15 250 50 0 empty empty empty 17 7 0 10 -262144 -1
-1;
#X obj 81 217 s vol05;
#X obj 275 121 hsl 128 15 -2 2 0 0 empty empty empty -2 -8 0 10 -262144
-1 -1 9800 1;
#X obj 272 140 s speed01;
#X obj 407 175 s play02;
#X obj 410 121 hsl 128 15 -2 2 0 0 empty empty empty -2 -8 0 10 -262144
-1 -1 11700 1;
#X obj 407 140 s speed02;
#X msg 545 126 play2;
#X msg 543 157 end;
#X obj 460 175 s end02;
#X msg 231 158 end;
#X msg 235 122 play1;
#X obj 271 176 s play01;
#X obj 324 176 s end01;
#X msg 273 220 start;
#X msg 336 219 stop;
#X msg 409 219 start;
#X msg 473 219 stop;
#X obj 274 261 hsl 128 15 -2 2 0 0 empty empty empty -2 -8 0 10 -262144
-1 -1 9800 1;
#X obj 412 261 hsl 128 15 -2 2 0 0 empty empty empty -2 -8 0 10 -262144
-1 -1 7200 1;
#X msg 551 296 end;
#X msg 220 299 end;
#N canvas 318 286 614 542 loop03 0;
#X obj 13 23 adc~;
#X obj 6 38 writesf~ 2;
#X msg 43 22 start;
#X msg 6 4 stop;
#N canvas 0 22 450 278 (subpatch) 0;
#X array array3 41536 float 4;
#X coords 0 1 41535 -1 200 140 1 0 0;
#X restore 268 175 graph;
#X obj 5 138 soundfiler;
#X floatatom 5 187 10 0 0 0 - - -;
#X obj 5 240 phasor~;
#X obj 5 260 *~;
#X obj 5 203 expr 44100/$f1;
#X msg 7 221 0;
#X obj 5 80 bng 15 250 50 0 empty empty empty 17 7 0 10 -262144 -1
-1;
#X obj 6 -19 r stop03;
#X obj 37 6 r loop03st;
#X obj 6 60 r play03;
#X obj 92 218 r speed03;
#X obj 180 257 r end03;
#X obj 4 280 tabread4~ array3;
#X obj 3 316 s~ loop03;
#X msg 6 95 read -resize pdtemp3.wav array3;
#X msg 82 23 open pdtemp3.wav;
#X connect 0 0 1 0;
#X connect 0 1 1 1;
#X connect 2 0 1 0;
#X connect 3 0 1 0;
#X connect 5 0 6 0;
#X connect 6 0 8 1;
#X connect 6 0 9 0;
#X connect 7 0 8 0;
#X connect 8 0 17 0;
#X connect 9 0 7 0;
#X connect 10 0 7 0;
#X connect 11 0 19 0;
#X connect 12 0 3 0;
#X connect 13 0 20 0;
#X connect 14 0 11 0;
#X connect 15 0 7 0;
#X connect 16 0 10 0;
#X connect 17 0 18 0;
#X connect 19 0 5 0;
#X connect 20 0 1 0;
#X connect 20 0 2 0;
#X restore 272 196 pd loop03;
#N canvas 945 352 449 352 loop04 0;
#X obj 23 33 adc~;
#X obj 16 48 writesf~ 2;
#X msg 53 32 start;
#X msg 16 14 stop;
#X obj 15 148 soundfiler;
#X floatatom 15 197 10 0 0 0 - - -;
#X obj 15 250 phasor~;
#X obj 15 270 *~;
#X obj 15 213 expr 44100/$f1;
#X msg 17 231 0;
#X obj 15 90 bng 15 250 50 0 empty empty empty 17 7 0 10 -262144 -1
-1;
#N canvas 0 22 450 278 (subpatch) 0;
#X array array4 28224 float 2;
#X coords 0 1 28224 -1 200 140 1 0 0;
#X restore 227 114 graph;
#X obj 15 -3 r stop04;
#X obj 47 15 r loop04st;
#X msg 92 34 open pdtemp4.wav;
#X obj 15 70 r play04;
#X msg 15 105 read -resize pdtemp4.wav array4;
#X obj 189 264 r end04;
#X obj 14 290 tabread4~ array4;
#X obj 13 313 s~ loop04;
#X obj 102 228 r speed04;
#X connect 0 0 1 0;
#X connect 0 1 1 1;
#X connect 2 0 1 0;
#X connect 3 0 1 0;
#X connect 4 0 5 0;
#X connect 5 0 7 1;
#X connect 5 0 8 0;
#X connect 6 0 7 0;
#X connect 7 0 18 0;
#X connect 8 0 6 0;
#X connect 9 0 6 0;
#X connect 10 0 16 0;
#X connect 12 0 3 0;
#X connect 13 0 14 0;
#X connect 14 0 1 0;
#X connect 14 0 2 0;
#X connect 15 0 10 0;
#X connect 16 0 4 0;
#X connect 17 0 9 0;
#X connect 18 0 19 0;
#X connect 20 0 6 0;
#X restore 409 195 pd loop04;
#X obj 272 242 s loop03st;
#X obj 409 242 s loop04st;
#X obj 474 242 s stop04;
#X obj 336 242 s stop03;
#X obj 271 280 s speed03;
#X obj 270 316 s play03;
#X obj 323 316 s end03;
#X obj 409 315 s play04;
#X obj 462 315 s end04;
#X obj 408 280 s speed04;
#X obj 129 137 r~ loop03;
#X obj 129 155 r~ loop04;
#X msg 229 266 play3;
#X msg 551 274 play4;
#X connect 3 0 5 0;
#X connect 7 0 5 0;
#X connect 8 0 9 0;
#X connect 10 0 11 0;
#X connect 13 0 15 0;
#X connect 14 0 16 0;
#X connect 17 0 5 0;
#X connect 19 0 18 0;
#X connect 20 0 21 0;
#X connect 22 0 23 0;
#X connect 25 0 26 0;
#X connect 27 0 24 0;
#X connect 28 0 29 0;
#X connect 30 0 33 0;
#X connect 31 0 32 0;
#X connect 34 0 44 0;
#X connect 35 0 47 0;
#X connect 36 0 45 0;
#X connect 37 0 46 0;
#X connect 38 0 48 0;
#X connect 39 0 53 0;
#X connect 40 0 52 0;
#X connect 41 0 50 0;
#X connect 54 0 5 0;
#X connect 55 0 5 0;
#X connect 56 0 49 0;
#X connect 57 0 51 0;
