#N canvas 743 192 929 473 10;
#N canvas 83 262 1230 787 dahood 0;
#X obj 104 715 dac~ 1 2;
#X obj 241 503 vsl 20 40 0 1 0 0 empty empty empty 0 -9 0 10 -261234
-1 -1 1950 1;
#X obj 103 562 *~;
#X obj 143 563 *~;
#N canvas 0 50 450 278 (subpatch) 0;
#X array channelR 3.76468e+07 float 2;
#X coords 0 1 3.76468e+07 -1 600 100 1 0 0;
#X restore 277 635 graph;
#N canvas 0 50 450 278 (subpatch) 0;
#X array channelL 3.76468e+07 float 2;
#X coords 0 1 3.76468e+07 -1 600 100 1 0 0;
#X restore 278 536 graph;
#X msg 62 169 read -resize \$1 channelL channelR;
#X obj 62 188 soundfiler;
#X floatatom 127 205 10 0 0 0 - - -;
#X obj 127 222 s sampleSize;
#X floatatom 315 143 10 0 0 0 - - -;
#X obj 61 285 phasor~;
#X obj 61 306 *~;
#X text 162 3 expr = create math;
#X obj 62 150 openpanel;
#X obj 22 439 tabread4~ channelL;
#X obj 140 438 tabread4~ channelR;
#X obj 172 292 r sampleSize;
#X floatatom 328 491 5 0 0 0 - - -;
#X obj 901 468 metro 50;
#X obj 900 491 snapshot~;
#X text 1015 557 read position of where the sound is in time. by using
metro. trigger by bang;
#X floatatom 900 512 5 0 0 0 - - -;
#X obj 899 536 /;
#X obj 934 522 r sampleSize;
#X floatatom 900 559 5 0 0 0 - - -;
#X obj 264 233 hsl 128 15 -1 1 0 0 empty empty empty -2 -8 0 10 -262144
-1 -1 6357 1;
#X floatatom 324 253 5 0 0 0 - - -;
#X text 423 316 manipulate phasor to modify playback;
#X msg 266 198 0.008;
#X text 136 265 default playback;
#X obj 897 360 counter;
#X obj 898 403 sel 0 1 2 3;
#X floatatom 933 383 5 0 0 0 - - -;
#X obj 898 327 bng 15 250 50 0 empty empty empty 17 7 0 10 -232576
-1 -1;
#X obj 898 342 metro;
#X obj 994 286 bng 15 250 50 0 empty empty empty 17 7 0 10 -262144
-1 -1;
#X floatatom 595 310 5 0 0 0 - - -;
#X floatatom 593 329 5 0 0 0 - - -;
#X floatatom 594 344 5 0 0 0 - - -;
#X floatatom 592 361 5 0 0 0 - - -;
#X text 761 291 scroll here;
#X obj 631 345 / 100;
#X obj 671 302 hsl 128 15 -10 1000 0 0 empty empty empty -2 -8 0 10
-203904 -1 -1 3483 1;
#X obj 680 324 hsl 128 15 -10 1000 0 0 empty empty empty -2 -8 0 10
-204800 -1 -1 2339 1;
#X obj 669 344 hsl 128 15 -10 1000 0 0 empty empty empty -2 -8 0 10
-261234 -1 -1 3445 1;
#X obj 669 363 hsl 128 15 -10 1000 0 0 empty empty empty -2 -8 0 10
-228856 -1 -1 3408 1;
#X text 104 22 next step might want to use writesf instead of openpanel
;
#X obj 898 379 % 4;
#X obj 358 122 bng 15 250 50 0 empty empty empty 17 7 0 10 -262144
-1 -1;
#X msg 415 110 0;
#X msg 1021 284 0;
#X msg 919 325 0;
#X obj 1142 96 bng 15 250 50 0 empty empty empty 17 7 0 10 -204786
-1 -1;
#X obj 1162 98 bng 15 250 50 0 empty empty empty 17 7 0 10 -261234
-1 -1;
#X obj 931 234 bng 15 250 50 0 empty empty empty 17 7 0 10 -262144
-1 -1;
#X obj 359 157 metro 6000;
#X msg 736 183 0;
#X obj 374 201 hsl 128 15 -10 10 0 0 empty empty empty -2 -8 0 10 -204800
-1 -1 6011 1;
#X obj 316 205 / 100;
#X floatatom 512 165 5 0 0 0 - - -;
#X obj 512 184 / 1000;
#X text 546 166 fine tuning;
#X msg 513 142 0;
#X floatatom 404 271 5 0 0 0 - - -;
#X obj 1126 304 counter;
#X obj 996 312 metro;
#X floatatom 1196 399 5 0 0 0 - - -;
#X obj 1153 478 bng 15 250 50 0 empty empty empty 17 7 0 10 -262144
-1 -1;
#X floatatom 1165 541 5 0 0 0 - - -;
#X floatatom 1087 492 5 0 0 0 - - -;
#X obj 1172 479 bng 15 250 50 0 empty empty empty 17 7 0 10 -262144
-1 -1;
#X obj 1191 479 bng 15 250 50 0 empty empty empty 17 7 0 10 -262144
-1 -1;
#X obj 1210 479 bng 15 250 50 0 empty empty empty 17 7 0 10 -262144
-1 -1;
#X obj 1134 366 bng 15 250 50 0 empty empty empty 17 7 0 10 -262144
-1 -1;
#X obj 1081 460 /;
#X floatatom 1181 264 5 0 0 0 - - -;
#X msg 1216 110 500;
#X msg 1216 88 250;
#X msg 1216 145 1000;
#X msg 1216 127 750;
#X msg 1217 163 2000;
#X obj 1135 390 random 5;
#X obj 1129 421 sel 0 1 2 3 4;
#X obj 1236 481 bng 15 250 50 0 empty empty empty 17 7 0 10 -262144
-1 -1;
#X text 89 127 upload file here;
#X msg 1219 180 5000;
#X msg 1220 201 7500;
#X text 545 141 return to 0;
#X msg 1220 219 10000;
#X text 1263 225 select time;
#X obj 631 229 metro;
#X floatatom 668 178 5 0 0 0 - - -;
#X obj 832 194 expr 60000/$f1;
#X obj 621 202 bng 15 250 50 0 empty empty empty 17 7 0 10 -262144
-1 -1;
#X msg 645 260 0;
#X msg 869 239 76;
#X obj 940 46 +;
#X obj 1021 37 random 30;
#X floatatom 1047 67 5 0 0 0 - - -;
#X obj 893 24 2;
#X floatatom 981 76 5 0 0 0 - - -;
#X obj 570 54 metro;
#X obj 554 54 bng 15 250 50 0 empty empty empty 17 7 0 10 -262144 -1
-1;
#X floatatom 633 15 5 0 0 0 - - -;
#X obj 633 103 bng 15 250 50 0 empty empty empty 17 7 0 10 -262144
-1 -1;
#X obj 652 104 bng 15 250 50 0 empty empty empty 17 7 0 10 -262144
-1 -1;
#X obj 671 104 bng 15 250 50 0 empty empty empty 17 7 0 10 -262144
-1 -1;
#X obj 690 104 bng 15 250 50 0 empty empty empty 17 7 0 10 -262144
-1 -1;
#X obj 634 82 sel 0 1 2 3 4;
#X obj 716 106 bng 15 250 50 0 empty empty empty 17 7 0 10 -262144
-1 -1;
#X obj 740 38 counter;
#X floatatom 860 43 5 0 0 0 - - -;
#X msg 453 68 0;
#X floatatom 890 130 5 0 0 0 - - -;
#X floatatom 882 82 5 0 0 0 - - -;
#X obj 780 89 random 1;
#X msg 1160 513 2;
#X msg 1245 513 4;
#X msg 1273 514 8;
#X msg 1218 513 3;
#X msg 1189 514 12;
#X floatatom 753 130 5 0 0 0 - - -;
#X msg 406 66 \$1 100;
#X obj 388 81 line;
#X floatatom 495 30 5 0 0 0 - - -;
#X obj 328 50 tgl 15 0 empty empty empty 17 7 0 10 -262144 -1 -1 0
1;
#X obj 601 466 sin 50;
#X floatatom 690 484 5 0 0 0 - - -;
#X obj 562 436 tgl 15 0 empty empty empty 17 7 0 10 -262144 -1 -1 0
1;
#X msg 1221 234 15000;
#X msg 1222 252 20000;
#X msg 1222 270 30000;
#X msg 1224 288 35000;
#X msg 1227 307 40000;
#X msg 1228 322 48000;
#X msg 1227 337 56000;
#X msg 1228 355 72000;
#X msg 1228 373 96000;
#X floatatom 1031 353 5 0 0 0 - - -;
#X msg 632 173 0;
#X text 945 323 seq;
#X text 673 261 rand;
#X text 348 49 pitchrand;
#X text 1140 80 errthang;
#X floatatom 697 165 5 0 0 0 - - -;
#X obj 700 150 bng 15 250 50 0 empty empty empty 17 7 0 10 -262144
-1 -1;
#X obj 674 155 bng 15 250 50 0 empty empty empty 17 7 0 10 -262144
-1 -1;
#X text 669 17 pitchrate;
#X obj 678 2 bng 15 250 50 0 empty empty empty 17 7 0 10 -262144 -1
-1;
#X obj 848 16 % 4;
#X msg 1029 334 0;
#X obj 62 128 r openpanel;
#X obj 254 50 r pitchrand;
#X obj 825 290 r seqtime1;
#X obj 826 319 r seqtime2;
#X obj 825 353 r seqtime3;
#X obj 825 384 r seqtime4;
#X obj 1132 24 r all;
#X obj 1170 24 r nothing;
#X obj 1022 382 r samplelength;
#X obj 230 470 r master_volume;
#X obj 949 441 r seqtime_seq;
#X obj 1052 267 r seqtime_div;
#X obj 497 230 r pitch;
#N canvas 0 22 450 278 (subpatch) 0;
#X array lop_display 100 float 3;
#A 0 0 0 0 0 0 0 0 0 0 0 0 0 0 0 0 0 0 0 0 0 0 0 0 0 0 0 0 0 0 0 0
0 0 0 0 0 0 0 0 0 0 0 0 0 0 0 0 0 0 0 0 0 0 0 0 0 0 0 0 0 0 0 0 0 0
0 0 0 0 0 0 0 0 0 0 0 0 0 0 0 0 0 0 0 0 0 0 0 0 0 0 0 0 0 0 0 0 0 0
0;
#X coords 0 1 99 -1 200 140 1;
#X restore 274 358 graph;
#X obj 201 606 mtof;
#X obj 143 585 lop~;
#X obj 98 586 lop~;
#X obj 902 583 s display;
#X obj 1167 554 s vpos;
#X obj 908 678 hsl 128 15 0 600 0 0 empty empty empty -2 -8 0 10 -262144
-1 -1 0 1;
#X obj 905 643 r display;
#X obj 793 79 r disp;
#X obj 902 450 r disp;
#X obj 207 575 r lpf;
#X obj 203 139 bng 15 250 50 0 empty empty empty 17 7 0 10 -262144
-1 -1;
#X obj 441 142 s defPitch;
#X obj 102 621 hip~;
#X obj 141 622 hip~;
#X obj 236 594 r hip;
#X obj 216 653 mtof;
#N canvas 729 187 673 332 freeverb 0;
#X obj 154 132 freeverb~;
#X obj 155 90 r~ signal_filtL;
#X obj 263 133 freeverb~;
#X obj 266 91 r~ signal_filtR;
#X msg 419 95 roomsize \$1;
#X msg 420 126 damping \$1;
#X msg 420 213 wet \$1;
#X msg 419 238 dry \$1;
#X obj 488 235 expr 1-$f1;
#X floatatom 540 160 5 0 0 0 - - -;
#X obj 136 216 s~ signal_frevL;
#X obj 258 217 s~ signal_frevR;
#X obj 479 190 r rev_bal;
#X obj 504 130 r rev_damp;
#X obj 416 66 r rev_room;
#X connect 0 0 10 0;
#X connect 1 0 0 0;
#X connect 2 0 11 0;
#X connect 3 0 2 0;
#X connect 4 0 2 0;
#X connect 4 0 0 0;
#X connect 5 0 2 0;
#X connect 5 0 0 0;
#X connect 6 0 2 0;
#X connect 6 0 0 0;
#X connect 7 0 2 0;
#X connect 7 0 0 0;
#X connect 8 0 7 0;
#X connect 12 0 9 0;
#X connect 12 0 8 0;
#X connect 12 0 6 0;
#X connect 13 0 5 0;
#X connect 14 0 4 0;
#X restore 141 72 pd freeverb;
#X obj 33 651 s~ signal_filtL;
#X obj 128 662 s~ signal_filtR;
#X obj 181 688 r~ signal_frevR;
#X obj 32 688 r~ signal_frevL;
#X obj 124 313 r restart;
#X obj 62 239 expr 44100 / $f1;
#X obj 231 112 r rstPit;
#X msg 18 262 0;
#X obj 21 231 r STOP;
#X obj 191 710 s~ toRecR;
#X obj 14 716 s~ toRecL;
#X obj 173 188 r bpm;
#X obj 183 198 r bpm;
#X obj 1147 162 r bpm;
#X obj 1275 535 r LgthDiv;
#X msg 15 298 1;
#X obj 265 130 t b b;
#X msg 231 196 0;
#X obj 534 255 r PLAY;
#X obj 539 280 bng 15 250 50 0 empty empty empty 17 7 0 10 -262144
-1 -1;
#X floatatom 426 230 5 0 0 0 - - -;
#X obj 763 417 s l1;
#X obj 833 419 s l3;
#X obj 861 420 s l4;
#X obj 681 412 bng 15 250 50 0 empty empty empty 17 7 0 10 -262144
-1 -1;
#X obj 691 422 bng 15 250 50 0 empty empty empty 17 7 0 10 -262144
-1 -1;
#X obj 711 442 bng 15 250 50 0 empty empty empty 17 7 0 10 -262144
-1 -1;
#X obj 721 452 bng 15 250 50 0 empty empty empty 17 7 0 10 -262144
-1 -1;
#X obj 822 455 s l2;
#X obj 638 310 / 100;
#X obj 638 328 / 100;
#X obj 638 364 / 100;
#X obj 288 94 r metRst;
#X obj 395 178 bng 15 250 50 0 empty empty empty 17 7 0 10 -262144
-1 -1;
#X obj 37 37;
#X obj 466 254 r metRst;
#X obj 833 154 r bpmData;
#X floatatom 939 196 5 0 0 0 - - -;
#X obj 785 227 metro;
#X obj 1037 162 bng 15 250 50 0 empty empty empty 17 7 0 10 -262144
-1 -1;
#X msg 972 238 0;
#X obj 792 62 random 10000;
#X obj 714 132 / 25000;
#X obj 1010 204 r random_off;
#X obj 1045 180 r random_on;
#X floatatom 722 286 5 0 0 0 - - -;
#X floatatom 780 286 5 0 0 0 - - -;
#X obj 732 261 random 1000;
#X obj 784 258 random 1000;
#X obj 842 268 random 1000;
#X obj 896 268 random 1000;
#X connect 1 0 3 1;
#X connect 1 0 2 1;
#X connect 1 0 18 0;
#X connect 2 0 168 0;
#X connect 3 0 167 0;
#X connect 6 0 7 0;
#X connect 7 0 8 0;
#X connect 7 0 188 0;
#X connect 8 0 9 0;
#X connect 10 0 26 0;
#X connect 10 0 177 0;
#X connect 10 0 203 0;
#X connect 10 0 11 0;
#X connect 10 0 64 0;
#X connect 11 0 12 0;
#X connect 12 0 15 0;
#X connect 12 0 16 0;
#X connect 12 0 20 0;
#X connect 14 0 6 0;
#X connect 15 0 2 0;
#X connect 16 0 3 0;
#X connect 17 0 12 1;
#X connect 19 0 20 0;
#X connect 20 0 22 0;
#X connect 22 0 23 0;
#X connect 23 0 25 0;
#X connect 24 0 23 1;
#X connect 25 0 169 0;
#X connect 26 0 27 0;
#X connect 29 0 26 0;
#X connect 31 0 48 0;
#X connect 32 0 43 0;
#X connect 32 0 204 0;
#X connect 32 0 207 0;
#X connect 32 1 44 0;
#X connect 32 1 208 0;
#X connect 32 2 45 0;
#X connect 32 2 205 0;
#X connect 32 3 46 0;
#X connect 32 3 206 0;
#X connect 34 0 35 0;
#X connect 35 0 31 0;
#X connect 36 0 66 0;
#X connect 40 0 11 1;
#X connect 42 0 39 0;
#X connect 42 0 11 1;
#X connect 43 0 212 0;
#X connect 44 0 213 0;
#X connect 45 0 42 0;
#X connect 46 0 214 0;
#X connect 48 0 32 0;
#X connect 48 0 33 0;
#X connect 49 0 56 0;
#X connect 50 0 56 0;
#X connect 51 0 66 0;
#X connect 52 0 35 0;
#X connect 53 0 49 0;
#X connect 53 0 34 0;
#X connect 53 0 36 0;
#X connect 53 0 126 0;
#X connect 54 0 50 0;
#X connect 54 0 51 0;
#X connect 54 0 52 0;
#X connect 54 0 95 0;
#X connect 54 0 113 0;
#X connect 54 0 57 0;
#X connect 55 0 98 0;
#X connect 55 0 221 0;
#X connect 56 0 58 0;
#X connect 56 0 216 0;
#X connect 57 0 221 0;
#X connect 58 0 59 0;
#X connect 58 0 64 0;
#X connect 59 0 11 0;
#X connect 60 0 61 0;
#X connect 61 0 58 0;
#X connect 63 0 60 0;
#X connect 64 0 11 0;
#X connect 65 0 74 0;
#X connect 66 0 65 0;
#X connect 68 0 117 0;
#X connect 69 0 75 1;
#X connect 69 0 170 0;
#X connect 70 0 35 1;
#X connect 71 0 121 0;
#X connect 72 0 120 0;
#X connect 73 0 118 0;
#X connect 74 0 76 0;
#X connect 74 0 82 0;
#X connect 75 0 70 0;
#X connect 76 0 66 1;
#X connect 76 0 75 0;
#X connect 76 0 104 0;
#X connect 76 0 145 0;
#X connect 77 0 76 0;
#X connect 78 0 76 0;
#X connect 79 0 76 0;
#X connect 80 0 76 0;
#X connect 81 0 76 0;
#X connect 82 0 67 0;
#X connect 82 0 83 0;
#X connect 83 0 68 0;
#X connect 83 1 71 0;
#X connect 83 2 72 0;
#X connect 83 3 73 0;
#X connect 83 4 84 0;
#X connect 84 0 119 0;
#X connect 86 0 76 0;
#X connect 87 0 76 0;
#X connect 89 0 76 0;
#X connect 91 0 55 0;
#X connect 92 0 91 1;
#X connect 93 0 92 0;
#X connect 93 0 220 0;
#X connect 94 0 91 0;
#X connect 95 0 91 0;
#X connect 95 0 57 0;
#X connect 95 0 223 0;
#X connect 96 0 93 0;
#X connect 96 0 94 0;
#X connect 97 0 101 0;
#X connect 98 0 99 0;
#X connect 99 0 97 1;
#X connect 100 0 97 0;
#X connect 102 0 103 0;
#X connect 102 0 111 0;
#X connect 104 0 102 1;
#X connect 105 0 224 0;
#X connect 106 0 116 0;
#X connect 106 0 60 0;
#X connect 107 0 224 0;
#X connect 109 0 105 0;
#X connect 109 1 106 0;
#X connect 109 2 107 0;
#X connect 109 3 108 0;
#X connect 109 4 110 0;
#X connect 111 0 150 0;
#X connect 113 0 102 0;
#X connect 117 0 69 0;
#X connect 118 0 69 0;
#X connect 119 0 69 0;
#X connect 120 0 69 0;
#X connect 121 0 69 0;
#X connect 123 0 124 0;
#X connect 124 0 125 0;
#X connect 125 0 102 0;
#X connect 126 0 123 0;
#X connect 127 0 128 0;
#X connect 129 0 127 0;
#X connect 130 0 76 0;
#X connect 131 0 76 0;
#X connect 132 0 76 0;
#X connect 133 0 76 0;
#X connect 134 0 76 0;
#X connect 135 0 76 0;
#X connect 136 0 76 0;
#X connect 137 0 76 0;
#X connect 138 0 76 0;
#X connect 139 0 76 0;
#X connect 140 0 92 0;
#X connect 145 0 91 1;
#X connect 146 0 145 0;
#X connect 147 0 92 0;
#X connect 149 0 104 0;
#X connect 150 0 109 0;
#X connect 150 0 112 0;
#X connect 151 0 139 0;
#X connect 152 0 14 0;
#X connect 153 0 126 0;
#X connect 154 0 43 0;
#X connect 155 0 44 0;
#X connect 156 0 45 0;
#X connect 157 0 46 0;
#X connect 158 0 53 0;
#X connect 159 0 54 0;
#X connect 160 0 139 0;
#X connect 161 0 1 0;
#X connect 162 0 35 0;
#X connect 163 0 66 0;
#X connect 164 0 58 0;
#X connect 166 0 167 1;
#X connect 166 0 168 1;
#X connect 167 0 179 0;
#X connect 168 0 178 0;
#X connect 174 0 19 0;
#X connect 175 0 166 0;
#X connect 176 0 10 0;
#X connect 178 0 183 0;
#X connect 179 0 184 0;
#X connect 180 0 181 0;
#X connect 181 0 179 1;
#X connect 181 0 178 1;
#X connect 185 0 0 1;
#X connect 185 0 192 0;
#X connect 186 0 0 0;
#X connect 186 0 193 0;
#X connect 187 0 11 1;
#X connect 188 0 10 0;
#X connect 188 0 11 0;
#X connect 189 0 176 0;
#X connect 190 0 11 0;
#X connect 191 0 190 0;
#X connect 196 0 76 0;
#X connect 197 0 69 0;
#X connect 198 0 11 0;
#X connect 199 0 64 0;
#X connect 199 1 200 0;
#X connect 200 0 11 0;
#X connect 201 0 202 0;
#X connect 202 0 64 0;
#X connect 208 0 211 0;
#X connect 212 0 11 1;
#X connect 212 0 37 0;
#X connect 213 0 38 0;
#X connect 213 0 11 1;
#X connect 214 0 40 0;
#X connect 214 0 11 1;
#X connect 215 0 113 0;
#X connect 218 0 56 0;
#X connect 219 0 93 0;
#X connect 220 0 221 1;
#X connect 221 0 230 0;
#X connect 221 0 231 0;
#X connect 221 0 232 0;
#X connect 221 0 233 0;
#X connect 222 0 220 0;
#X connect 223 0 221 0;
#X connect 224 0 225 0;
#X connect 225 0 58 0;
#X connect 225 0 122 0;
#X connect 226 0 223 0;
#X connect 227 0 221 0;
#X connect 230 0 228 0;
#X connect 230 0 43 0;
#X connect 231 0 229 0;
#X connect 231 0 44 0;
#X connect 232 0 45 0;
#X connect 233 0 46 0;
#X restore -25 20 pd dahood;
#X obj -25 -28 tgl 15 0 empty empty empty 17 7 0 10 -262144 -1 -1 1
1;
#X msg -25 -11 \; pd dsp \$1;
#X obj 67 26 bng 15 250 50 0 empty empty empty 17 7 0 10 -262144 -1
-1;
#X obj 68 43 s openpanel;
#X obj 67 88 s pitchrand;
#X obj 236 22 hsl 128 15 0 1000 0 0 empty empty empty -2 -8 0 10 -203904
-1 -1 0 1;
#X obj 236 58 hsl 128 15 0 1000 0 0 empty empty empty -2 -8 0 10 -204800
-1 -1 0 1;
#X obj 235 94 hsl 128 15 0 1000 0 0 empty empty empty -2 -8 0 10 -261234
-1 -1 0 1;
#X obj 235 134 hsl 128 15 0 1000 0 0 empty empty empty -2 -8 0 10 -228856
-1 -1 0 1;
#X obj 302 37 s seqtime1;
#X obj 302 74 s seqtime2;
#X obj 301 109 s seqtime3;
#X obj 301 149 s seqtime4;
#X obj 447 22 bng 15 250 50 0 empty empty empty 17 7 0 10 -204786 -1
-1;
#X obj 481 22 bng 15 250 50 0 empty empty empty 17 7 0 10 -261234 -1
-1;
#X obj 447 38 s all;
#X obj 480 38 s nothing;
#X floatatom 460 140 5 0 0 0 - - -;
#X obj 444 157 s samplelength;
#X obj 424 140 bng 15 250 50 0 empty empty empty 17 7 0 10 -262144
-1 -1;
#X obj 66 123 vsl 20 40 0 0.5 0 0 empty empty empty 0 -9 0 10 -258113
-1 -1 3900 1;
#X obj 67 166 s master_volume;
#X obj 228 224 bng 15 250 50 0 empty empty empty 17 7 0 10 -262144
-1 -1;
#X msg 284 223 0;
#X obj 228 240 s seqtime_seq;
#X obj 323 224 bng 15 250 50 0 empty empty empty 17 7 0 10 -262144
-1 -1;
#X msg 379 223 0;
#X obj 323 240 s seqtime_div;
#X obj 452 229 hsl 132 15 -10 10 0 0 empty empty empty -2 -8 0 10 -204800
-1 -1 6200 1;
#X obj 455 261 s pitch;
#X obj 691 27 hsl 100 100 0 1 0 0 empty empty empty -2 -8 0 10 -232576
-1 -1 6043 1;
#X obj 688 10 r display;
#X floatatom 323 274 5 0 0 0 - - -;
#X obj 323 258 r vpos;
#X msg 493 140 1000;
#X msg 527 140 5000;
#X msg 561 140 10000;
#X obj 533 156 s nDat;
#X obj 460 123 r nDat;
#X obj 455 245 hsl 128 15 -0.05 0.05 0 0 empty empty empty -2 -8 0
10 -212800 -1 -1 6100 1;
#X floatatom 451 278 15 0 0 0 - - -;
#X floatatom 688 128 5 0 0 0 - - -;
#X msg 434 123 10;
#X obj 793 11 tgl 15 0 empty empty empty 17 7 0 10 -232576 -1 -1 0
1;
#X obj 793 27 s disp;
#X obj 716 162 vsl 15 30 127 0 0 0 empty empty empty 0 -9 0 10 -204786
-1 -1 0 1;
#X msg 732 178 127;
#X obj 718 198 s lpf;
#X obj 67 72 tgl 15 0 empty empty empty 17 7 0 10 -262144 -1 -1 0 1
;
#X obj 39 -13 s disp;
#X obj 586 229 r defPitch;
#X floatatom 585 246 11 0 0 0 - - -;
#X obj 751 162 vsl 15 30 0 127 0 0 empty empty empty 0 -9 0 10 -204786
-1 -1 0 1;
#X obj 753 198 s hip;
#X msg 767 178 0;
#X floatatom 686 199 5 0 0 0 - - -;
#X floatatom 787 199 5 0 0 0 - - -;
#X obj 684 366 hsl 128 15 0 1 0 0 empty empty empty -2 -8 0 10 -261682
-1 -1 0 1;
#X obj 681 381 s rev_bal;
#X obj 684 313 hsl 128 15 0 1 0 0 empty empty empty -2 -8 0 10 -203904
-1 -1 12700 1;
#X obj 681 329 s rev_damp;
#X obj 681 276 s rev_room;
#X msg 815 244 0;
#X msg 815 296 0;
#X msg 815 349 0;
#X obj 684 261 hsl 128 15 0 1 0 0 empty empty empty -2 -8 0 10 -204800
-1 -1 7300 1;
#X obj 815 226 r disp;
#X msg 120 201 0;
#X obj 99 252 s restart;
#X floatatom 93 218 5 0 127 0 - - -;
#X obj 93 203 bng 15 250 50 0 empty empty empty 17 7 0 10 -159808 -1
-1;
#X obj 588 260 bng 15 250 50 0 empty empty empty 17 7 0 10 -257985
-1 -1;
#X obj 439 345 s STOP;
#X obj 439 330 bng 15 250 50 0 empty empty empty 17 7 0 10 -258113
-1 -1;
#X obj 354 330 bng 15 250 50 0 empty empty empty 17 7 0 10 -4034 -1
-1;
#X obj 354 345 s PLAY;
#X msg 87 149 0;
#X msg 47 305 open sample.wav \, start;
#X msg 188 305 stop;
#X obj 35 326 r~ toRecL;
#X obj 182 332 r~ toRecR;
#X obj 104 367 writesf~ 2;
#N canvas 916 413 450 300 bpm 0;
#X obj 125 65 t b b b;
#X msg 141 85 60000;
#X obj 138 109 /;
#X floatatom 192 85 5 0 0 0 - - -;
#X obj 125 49 bng 15 250 50 0 empty empty empty 17 7 0 10 -262144 -1
-1;
#X obj 107 85 metro;
#X floatatom 138 127 5 0 0 0 - - -;
#X obj 157 154 s bpm;
#X obj 240 57 r bpmCtrl;
#X obj 279 139 s bpmData;
#X obj 124 27 r bpmBng;
#X connect 0 0 5 0;
#X connect 0 1 1 0;
#X connect 0 2 3 0;
#X connect 1 0 2 0;
#X connect 2 0 6 0;
#X connect 3 0 2 1;
#X connect 3 0 9 0;
#X connect 4 0 0 0;
#X connect 6 0 7 0;
#X connect 8 0 3 0;
#X connect 10 0 4 0;
#X restore 591 25 pd bpm;
#X obj 572 156 r bpmData;
#X floatatom 572 174 5 0 0 0 - - -;
#X obj 586 124 s bpmCtrl;
#X floatatom 557 107 5 1 999 0 - - -;
#X obj 541 108 bng 15 250 50 0 empty empty empty 17 7 0 10 -262144
-1 -1;
#X obj 534 124 s bpmBng;
#X obj 587 108 s LgthDiv;
#X floatatom 587 92 5 1 128 1 div - -;
#X obj 587 77 bng 15 250 50 0 empty empty empty 17 7 0 10 -262144 -1
-1;
#X msg 556 90 120;
#X obj 587 274 s rstPit;
#X text 555 73 bpm;
#X floatatom 780 260 5 0 0 0 - - -;
#X obj 218 22 bng 15 250 50 0 empty empty empty 17 7 0 10 -203904 -1
-1;
#X obj 218 58 bng 15 250 50 0 empty empty empty 17 7 0 10 -204800 -1
-1;
#X obj 217 94 bng 15 250 50 0 empty empty empty 17 7 0 10 -261234 -1
-1;
#X obj 217 134 bng 15 250 50 0 empty empty empty 17 7 0 10 -228856
-1 -1;
#X obj 218 6 r l1;
#X obj 217 77 r l3;
#X obj 217 117 r l4;
#X obj 218 41 r l2;
#X floatatom 365 149 5 0 0 0 - - -;
#X floatatom 365 110 5 0 0 0 - - -;
#X floatatom 367 74 5 0 0 0 - - -;
#X floatatom 367 38 5 0 0 0 - - -;
#X msg 246 5 0;
#X msg 245 41 0;
#X msg 244 77 0;
#X msg 244 117 0;
#X msg 245 -12 ZERO;
#X msg 447 61 0;
#X obj 447 77 s metRst;
#X obj 449 212 r rstPit;
#X msg 113 149 0.5;
#X msg 602 77 1;
#X msg 843 244 1;
#X msg 843 296 1;
#X msg 842 349 1;
#X msg 530 90 10;
#X msg 868 349 0.5;
#X msg 870 244 0.5;
#X msg 870 296 0.5;
#X obj 124 235 / 127;
#X obj 35 346 *~ 1;
#X obj 182 349 *~ 1;
#X obj 438 377 bng 15 250 50 0 empty empty empty 17 7 0 10 -258113
-1 -1;
#X obj 354 378 bng 15 250 50 0 empty empty empty 17 7 0 10 -4032 -1
-1;
#X obj 354 393 s random_on;
#X obj 438 392 s random_off;
#X obj 732 144 r disp;
#X connect 1 0 2 0;
#X connect 1 0 50 0;
#X connect 3 0 4 0;
#X connect 6 0 10 0;
#X connect 6 0 108 0;
#X connect 7 0 11 0;
#X connect 7 0 107 0;
#X connect 8 0 12 0;
#X connect 8 0 106 0;
#X connect 9 0 13 0;
#X connect 9 0 105 0;
#X connect 14 0 16 0;
#X connect 15 0 17 0;
#X connect 18 0 19 0;
#X connect 20 0 18 0;
#X connect 21 0 22 0;
#X connect 23 0 25 0;
#X connect 24 0 25 0;
#X connect 26 0 28 0;
#X connect 27 0 28 0;
#X connect 29 0 30 0;
#X connect 29 0 41 0;
#X connect 31 0 42 0;
#X connect 32 0 31 0;
#X connect 34 0 33 0;
#X connect 35 0 38 0;
#X connect 36 0 38 0;
#X connect 37 0 38 0;
#X connect 39 0 18 0;
#X connect 39 0 20 0;
#X connect 40 0 30 0;
#X connect 40 0 41 0;
#X connect 43 0 18 0;
#X connect 43 0 19 0;
#X connect 44 0 45 0;
#X connect 46 0 48 0;
#X connect 46 0 56 0;
#X connect 47 0 48 0;
#X connect 49 0 5 0;
#X connect 51 0 52 0;
#X connect 53 0 54 0;
#X connect 53 0 57 0;
#X connect 55 0 54 0;
#X connect 58 0 59 0;
#X connect 60 0 61 0;
#X connect 63 0 66 0;
#X connect 64 0 60 0;
#X connect 65 0 58 0;
#X connect 66 0 62 0;
#X connect 67 0 63 0;
#X connect 67 0 64 0;
#X connect 67 0 65 0;
#X connect 68 0 69 0;
#X connect 68 0 70 0;
#X connect 70 0 69 0;
#X connect 70 0 126 0;
#X connect 71 0 70 0;
#X connect 72 0 94 0;
#X connect 72 0 52 0;
#X connect 74 0 73 0;
#X connect 75 0 76 0;
#X connect 77 0 22 0;
#X connect 78 0 82 0;
#X connect 79 0 82 0;
#X connect 80 0 127 0;
#X connect 81 0 128 0;
#X connect 84 0 85 0;
#X connect 87 0 86 0;
#X connect 87 0 89 0;
#X connect 88 0 89 0;
#X connect 91 0 90 0;
#X connect 91 0 88 0;
#X connect 92 0 91 0;
#X connect 93 0 87 0;
#X connect 101 0 97 0;
#X connect 102 0 99 0;
#X connect 103 0 100 0;
#X connect 104 0 98 0;
#X connect 109 0 6 0;
#X connect 110 0 7 0;
#X connect 111 0 8 0;
#X connect 112 0 9 0;
#X connect 113 0 112 0;
#X connect 113 0 111 0;
#X connect 113 0 110 0;
#X connect 113 0 109 0;
#X connect 114 0 115 0;
#X connect 116 0 29 0;
#X connect 117 0 22 0;
#X connect 118 0 91 0;
#X connect 119 0 66 0;
#X connect 120 0 60 0;
#X connect 121 0 58 0;
#X connect 122 0 87 0;
#X connect 123 0 58 0;
#X connect 124 0 66 0;
#X connect 125 0 60 0;
#X connect 126 0 69 0;
#X connect 127 0 82 0;
#X connect 128 0 82 1;
#X connect 129 0 132 0;
#X connect 130 0 131 0;
#X connect 133 0 47 0;
