#N canvas 0 23 1280 709 10;
#N canvas 249 23 1652 986 dahood 0;
#X obj 104 715 dac~ 1 2;
#X obj 241 503 vsl 20 40 0 1 0 0 empty empty empty 0 -9 0 10 -261234
-1 -1 1950 1;
#X obj 103 562 *~;
#X obj 143 563 *~;
#N canvas 0 50 450 278 (subpatch) 0;
#X array channelR 1.28166e+07 float 2;
#X coords 0 1 1.28166e+07 -1 600 100 1 0 0;
#X restore 277 635 graph;
#N canvas 0 50 450 278 (subpatch) 0;
#X array channelL 1.28166e+07 float 2;
#X coords 0 1 1.28166e+07 -1 600 100 1 0 0;
#X restore 278 536 graph;
#X msg 62 169 read -resize \$1 channelL channelR;
#X obj 62 188 soundfiler;
#X floatatom 127 205 10 0 0 0 - - -;
#X obj 127 222 s sampleSize;
#X floatatom 315 143 10 0 0 0 - - -;
#X obj 61 306 *~;
#X text 162 3 expr = create math;
#X obj 62 150 openpanel;
#X obj 22 439 tabread4~ channelL;
#X obj 140 438 tabread4~ channelR;
#X obj 172 292 r sampleSize;
#X floatatom 328 491 5 0 0 0 - - -;
#X obj 901 468 metro 50;
#X obj 900 491 snapshot~;
#X text 1015 557 read position of where the sound is in time. by using
metro. trigger by bang;
#X floatatom 900 512 5 0 0 0 - - -;
#X obj 899 536 /;
#X obj 934 522 r sampleSize;
#X floatatom 900 559 5 0 0 0 - - -;
#X obj 264 233 hsl 128 15 -1 1 0 0 empty empty empty -2 -8 0 10 -262144
-1 -1 6372 1;
#X floatatom 324 253 5 0 0 0 - - -;
#X text 423 316 manipulate phasor to modify playback;
#X msg 266 198 0.008;
#X text 136 265 default playback;
#X obj 897 360 counter;
#X floatatom 933 383 5 0 0 0 - - -;
#X obj 898 327 bng 15 250 50 0 empty empty empty 17 7 0 10 -232576
-1 -1;
#X obj 898 342 metro;
#X obj 994 286 bng 15 250 50 0 empty empty empty 17 7 0 10 -262144
-1 -1;
#X floatatom 595 310 5 0 0 0 - - -;
#X floatatom 593 329 5 0 0 0 - - -;
#X floatatom 594 344 5 0 0 0 - - -;
#X floatatom 592 361 5 0 0 0 - - -;
#X text 761 291 scroll here;
#X obj 631 345 / 100;
#X obj 681 298 hsl 128 15 -10 1000 0 0 empty empty empty -2 -8 0 10
-203904 -1 -1 6133 1;
#X obj 680 324 hsl 128 15 -10 1000 0 0 empty empty empty -2 -8 0 10
-204800 -1 -1 6133 1;
#X obj 669 344 hsl 128 15 -10 1000 0 0 empty empty empty -2 -8 0 10
-261234 -1 -1 6133 1;
#X obj 699 389 hsl 128 15 -10 1000 0 0 empty empty empty -2 -8 0 10
-228856 -1 -1 6133 1;
#X text 104 22 next step might want to use writesf instead of openpanel
;
#X obj 358 122 bng 15 250 50 0 empty empty empty 17 7 0 10 -262144
-1 -1;
#X msg 415 110 0;
#X msg 1021 284 0;
#X msg 919 325 0;
#X obj 1142 96 bng 15 250 50 0 empty empty empty 17 7 0 10 -204786
-1 -1;
#X obj 1162 98 bng 15 250 50 0 empty empty empty 17 7 0 10 -261234
-1 -1;
#X obj 931 234 bng 15 250 50 0 empty empty empty 17 7 0 10 -262144
-1 -1;
#X obj 359 157 metro 6000;
#X msg 736 183 0;
#X obj 374 201 hsl 128 15 -10 10 0 0 empty empty empty -2 -8 0 10 -204800
-1 -1 6344 1;
#X obj 316 205 / 100;
#X floatatom 512 165 5 0 0 0 - - -;
#X obj 512 184 / 1000;
#X text 546 166 fine tuning;
#X msg 513 142 0;
#X floatatom 404 271 5 0 0 0 - - -;
#X obj 1126 304 counter;
#X obj 996 312 metro;
#X floatatom 1196 399 5 0 0 0 - - -;
#X obj 1153 478 bng 15 250 50 0 empty empty empty 17 7 0 10 -262144
-1 -1;
#X floatatom 1165 541 5 0 0 0 - - -;
#X floatatom 1087 492 5 0 0 0 - - -;
#X obj 1172 479 bng 15 250 50 0 empty empty empty 17 7 0 10 -262144
-1 -1;
#X obj 1191 479 bng 15 250 50 0 empty empty empty 17 7 0 10 -262144
-1 -1;
#X obj 1210 479 bng 15 250 50 0 empty empty empty 17 7 0 10 -262144
-1 -1;
#X obj 1134 366 bng 15 250 50 0 empty empty empty 17 7 0 10 -262144
-1 -1;
#X obj 1081 460 /;
#X floatatom 1181 264 5 0 0 0 - - -;
#X msg 1216 110 500;
#X msg 1216 88 250;
#X msg 1216 145 1000;
#X msg 1216 127 750;
#X msg 1217 163 2000;
#X obj 1135 390 random 5;
#X obj 1129 421 sel 0 1 2 3 4;
#X obj 1236 481 bng 15 250 50 0 empty empty empty 17 7 0 10 -262144
-1 -1;
#X text 89 127 upload file here;
#X msg 1219 180 5000;
#X msg 1220 201 7500;
#X text 545 141 return to 0;
#X msg 1220 219 10000;
#X text 1263 225 select time;
#X obj 631 229 metro;
#X floatatom 668 178 5 0 0 0 - - -;
#X obj 832 194 expr 60000/$f1;
#X obj 621 202 bng 15 250 50 0 empty empty empty 17 7 0 10 -262144
-1 -1;
#X msg 645 260 0;
#X msg 869 239 76;
#X obj 940 46 +;
#X obj 1021 37 random 30;
#X floatatom 1047 67 5 0 0 0 - - -;
#X obj 893 24 2;
#X floatatom 981 76 5 0 0 0 - - -;
#X obj 570 54 metro;
#X obj 554 54 bng 15 250 50 0 empty empty empty 17 7 0 10 -262144 -1
-1;
#X floatatom 633 15 5 0 0 0 - - -;
#X obj 633 103 bng 15 250 50 0 empty empty empty 17 7 0 10 -262144
-1 -1;
#X obj 671 104 bng 15 250 50 0 empty empty empty 17 7 0 10 -262144
-1 -1;
#X obj 690 104 bng 15 250 50 0 empty empty empty 17 7 0 10 -262144
-1 -1;
#X obj 634 82 sel 0 1 2 3 4;
#X obj 716 106 bng 15 250 50 0 empty empty empty 17 7 0 10 -262144
-1 -1;
#X obj 740 38 counter;
#X floatatom 860 43 5 0 0 0 - - -;
#X msg 453 68 0;
#X floatatom 890 130 5 0 0 0 - - -;
#X floatatom 882 82 5 0 0 0 - - -;
#X obj 780 89 random 1;
#X msg 1160 513 2;
#X msg 1245 513 4;
#X msg 1273 514 8;
#X msg 1218 513 3;
#X msg 1189 514 12;
#X floatatom 753 130 5 0 0 0 - - -;
#X msg 406 66 \$1 100;
#X obj 388 81 line;
#X floatatom 495 30 5 0 0 0 - - -;
#X obj 328 50 tgl 15 0 empty empty empty 17 7 0 10 -262144 -1 -1 0
1;
#X msg 1221 234 15000;
#X msg 1222 252 20000;
#X msg 1222 270 30000;
#X msg 1224 288 35000;
#X msg 1227 307 40000;
#X msg 1228 322 48000;
#X msg 1227 337 56000;
#X msg 1228 355 72000;
#X msg 1228 373 96000;
#X floatatom 1031 353 5 0 0 0 - - -;
#X msg 632 173 0;
#X text 945 323 seq;
#X text 673 261 rand;
#X text 348 49 pitchrand;
#X text 1140 80 errthang;
#X floatatom 697 165 5 0 0 0 - - -;
#X obj 700 150 bng 15 250 50 0 empty empty empty 17 7 0 10 -262144
-1 -1;
#X obj 674 155 bng 15 250 50 0 empty empty empty 17 7 0 10 -262144
-1 -1;
#X text 669 17 pitchrate;
#X obj 678 2 bng 15 250 50 0 empty empty empty 17 7 0 10 -262144 -1
-1;
#X obj 848 16 % 4;
#X msg 1029 334 0;
#X obj 62 128 r openpanel;
#X obj 254 50 r pitchrand;
#X obj 825 290 r seqtime1;
#X obj 826 319 r seqtime2;
#X obj 825 353 r seqtime3;
#X obj 825 384 r seqtime4;
#X obj 1132 24 r all;
#X obj 1170 24 r nothing;
#X obj 1022 382 r samplelength;
#X obj 230 470 r master_volume;
#X obj 949 441 r seqtime_seq;
#X obj 1052 267 r seqtime_div;
#X obj 497 230 r pitch;
#N canvas 0 22 450 278 (subpatch) 0;
#X array lop_display 100 float 3;
#A 0 0 0 0 0 -0.0714302 0.014286 0.0714302 0.157146 0.257149 0.292864
0.328579 0.352389 0.376199 0.400009 0.410724 0.421438 0.432153 0.442867
0.442867 0.452391 0.461915 0.471439 0.471439 0.476201 0.480963 0.485725
0.485725 0.485725 0.485725 0.485725 0.485725 0.471439 0.457153 0.442867
0.417867 0.392866 0.367866 0.342865 0.303578 0.264292 0.225005 0.185719
0.171432 0.114288 0.0571442 0 -0.0571442 -0.128574 -0.164289 -0.257149
-0.314293 -0.357151 -0.385723 -0.400009 -0.414295 -0.428581 -0.442867
-0.457153 -0.457153 -0.457153 -0.457153 -0.457153 -0.428581 -0.400009
-0.371437 -0.350008 -0.328579 -0.271435 -0.14286 -0.0571442 0.0285721
0.157146 0.250006 0.342865 0.428581 0.442867 0 0 0 0 0 0 0 0 0 0 0
0 0 0 0 0 0 0 0 0 0 0 0 0;
#X coords 0 1 99 -1 200 140 1;
#X restore 274 358 graph;
#X obj 201 606 mtof;
#X obj 143 585 lop~;
#X obj 98 586 lop~;
#X obj 902 583 s display;
#X obj 1167 554 s vpos;
#X obj 908 678 hsl 128 15 0 600 0 0 empty empty empty -2 -8 0 10 -262144
-1 -1 0 1;
#X obj 905 643 r display;
#X obj 793 79 r disp;
#X obj 902 450 r disp;
#X obj 207 575 r lpf;
#X obj 203 139 bng 15 250 50 0 empty empty empty 17 7 0 10 -262144
-1 -1;
#X obj 441 142 s defPitch;
#X obj 102 621 hip~;
#X obj 141 622 hip~;
#X obj 236 594 r hip;
#X obj 216 653 mtof;
#N canvas 729 187 673 332 freeverb 0;
#X obj 154 132 freeverb~;
#X obj 155 90 r~ signal_filtL;
#X obj 263 133 freeverb~;
#X obj 266 91 r~ signal_filtR;
#X msg 419 95 roomsize \$1;
#X msg 420 126 damping \$1;
#X msg 420 213 wet \$1;
#X msg 419 238 dry \$1;
#X obj 488 235 expr 1-$f1;
#X floatatom 540 160 5 0 0 0 - - -;
#X obj 136 216 s~ signal_frevL;
#X obj 258 217 s~ signal_frevR;
#X obj 479 190 r rev_bal;
#X obj 504 130 r rev_damp;
#X obj 416 66 r rev_room;
#X connect 0 0 10 0;
#X connect 1 0 0 0;
#X connect 2 0 11 0;
#X connect 3 0 2 0;
#X connect 4 0 2 0;
#X connect 4 0 0 0;
#X connect 5 0 2 0;
#X connect 5 0 0 0;
#X connect 6 0 2 0;
#X connect 6 0 0 0;
#X connect 7 0 2 0;
#X connect 7 0 0 0;
#X connect 8 0 7 0;
#X connect 12 0 9 0;
#X connect 12 0 8 0;
#X connect 12 0 6 0;
#X connect 13 0 5 0;
#X connect 14 0 4 0;
#X restore 141 72 pd freeverb;
#X obj 33 651 s~ signal_filtL;
#X obj 128 662 s~ signal_filtR;
#X obj 181 688 r~ signal_frevR;
#X obj 32 688 r~ signal_frevL;
#X obj 124 313 r restart;
#X obj 62 239 expr 44100 / $f1;
#X obj 231 112 r rstPit;
#X msg 18 262 0;
#X obj 21 231 r STOP;
#X obj 191 710 s~ toRecR;
#X obj 14 716 s~ toRecL;
#X obj 1147 162 r bpm;
#X obj 1275 535 r LgthDiv;
#X msg 15 298 1;
#X obj 265 130 t b b;
#X msg 231 196 0;
#X obj 534 255 r PLAY;
#X obj 539 280 bng 15 250 50 0 empty empty empty 17 7 0 10 -262144
-1 -1;
#X floatatom 426 230 5 0 0 0 - - -;
#X obj 784 424 s l1;
#X obj 837 427 s l3;
#X obj 864 434 s l4;
#X obj 676 418 bng 15 250 50 0 empty empty empty 17 7 0 10 -262144
-1 -1;
#X obj 691 418 bng 15 250 50 0 empty empty empty 17 7 0 10 -262144
-1 -1;
#X obj 707 419 bng 15 250 50 0 empty empty empty 17 7 0 10 -262144
-1 -1;
#X obj 722 419 bng 15 250 50 0 empty empty empty 17 7 0 10 -262144
-1 -1;
#X obj 809 442 s l2;
#X obj 640 308 / 100;
#X obj 638 328 / 100;
#X obj 638 364 / 100;
#X obj 288 94 r metRst;
#X obj 395 178 bng 15 250 50 0 empty empty empty 17 7 0 10 -262144
-1 -1;
#X obj 466 254 r metRst;
#X obj 833 154 r bpmData;
#X floatatom 939 196 5 0 0 0 - - -;
#X obj 785 227 metro;
#X obj 1037 162 bng 15 250 50 0 empty empty empty 17 7 0 10 -262144
-1 -1;
#X msg 972 238 0;
#X obj 1010 204 r random_off;
#X obj 1045 180 r random_on;
#X floatatom 722 286 5 0 0 0 - - -;
#X floatatom 780 286 5 0 0 0 - - -;
#X obj 732 261 random 1000;
#X obj 784 258 random 1000;
#X obj 842 268 random 1000;
#X obj 896 268 random 1000;
#N canvas 835 378 450 300 aEnv 0;
#X obj 147 168 vline~;
#X obj 147 197 s~ aEnv;
#X msg 147 151 1 \$2 \, \$4 \$3 \$2;
#X msg 240 151 \$2;
#X floatatom 138 66 5 0 0 0 - - -;
#X floatatom 177 64 5 0 0 0 - - -;
#X connect 0 0 1 0;
#X connect 2 0 0 0;
#X connect 3 0 0 0;
#X restore 227 788 pd aEnv;
#X obj 61 285 phasor~;
#X obj 1121 213 s globeBpm;
#X obj 711 127 / 1e+06;
#X obj 792 63 random 15000;
#X obj 741 152 + 0.002;
#X obj 596 402 s rando1;
#X obj 597 421 s rando2;
#X obj 598 441 s rando3;
#X obj 599 460 s rando4;
#X obj 662 498 pack f f f f;
#X obj 571 501 s totext;
#X obj 1070 148 s randomtrigOn;
#X obj 1080 236 s randomtrigOff;
#X obj 1131 626 bng 15 250 50 0 empty empty empty 17 7 0 10 -262144
-1 -1;
#X obj 1146 626 bng 15 250 50 0 empty empty empty 17 7 0 10 -262144
-1 -1;
#X obj 1162 627 bng 15 250 50 0 empty empty empty 17 7 0 10 -262144
-1 -1;
#X obj 1177 627 bng 15 250 50 0 empty empty empty 17 7 0 10 -262144
-1 -1;
#X obj 1133 650 s l5;
#X obj 1192 652 s l7;
#X obj 1220 652 s l8;
#X obj 1100 700 hsl 128 15 -10 1000 0 0 empty empty empty -2 -8 0 10
-203904 -1 -1 6133 1;
#X obj 1100 716 hsl 128 15 -10 1000 0 0 empty empty empty -2 -8 0 10
-204800 -1 -1 6133 1;
#X obj 1100 731 hsl 128 15 -10 1000 0 0 empty empty empty -2 -8 0 10
-261234 -1 -1 6133 1;
#X obj 1100 746 hsl 128 15 -10 1000 0 0 empty empty empty -2 -8 0 10
-228856 -1 -1 6133 1;
#X obj 1239 682 r seqtime5;
#X obj 1238 699 r seqtime6;
#X obj 1237 714 r seqtime7;
#X obj 1238 729 r seqtime8;
#X obj 1022 706 / 100;
#X obj 1032 716 / 100;
#X obj 1042 726 / 100;
#X obj 1052 736 / 100;
#X obj 1276 430 random 1000;
#X obj 1330 430 random 1000;
#X obj 1289 454 random 1000;
#X obj 1343 454 random 1000;
#X obj 1162 651 s l6;
#X obj 1258 312 sel 0 1 2 3 4 5 6 7 8 9 10 11 12 13 14 15 16;
#X obj 1284 627 bng 15 250 50 0 empty empty empty 17 7 0 10 -262144
-1 -1;
#X obj 1299 627 bng 15 250 50 0 empty empty empty 17 7 0 10 -262144
-1 -1;
#X obj 1315 627 bng 15 250 50 0 empty empty empty 17 7 0 10 -262144
-1 -1;
#X obj 1330 627 bng 15 250 50 0 empty empty empty 17 7 0 10 -262144
-1 -1;
#X obj 1346 627 bng 15 250 50 0 empty empty empty 17 7 0 10 -262144
-1 -1;
#X obj 1361 627 bng 15 250 50 0 empty empty empty 17 7 0 10 -262144
-1 -1;
#X obj 1377 627 bng 15 250 50 0 empty empty empty 17 7 0 10 -262144
-1 -1;
#X obj 1392 627 bng 15 250 50 0 empty empty empty 17 7 0 10 -262144
-1 -1;
#X obj 1267 656 s l9;
#X obj 1297 673 s l10;
#X obj 1328 693 s l11;
#X obj 1352 656 s l12;
#X obj 1353 675 s l13;
#X obj 1382 675 s l14;
#X obj 1410 675 s l15;
#X obj 1438 675 s l16;
#X obj 1352 490 random 1000;
#X obj 1353 508 random 1000;
#X obj 1355 544 random 1000;
#X obj 1354 526 random 1000;
#X obj 1523 447 random 1000;
#X obj 1524 465 random 1000;
#X obj 1526 501 random 1000;
#X obj 1525 483 random 1000;
#X obj 1367 768 hsl 128 15 -10 1000 0 0 empty empty empty -2 -8 0 10
-203904 -1 -1 6133 1;
#X obj 1366 785 hsl 128 15 -10 1000 0 0 empty empty empty -2 -8 0 10
-204800 -1 -1 6133 1;
#X obj 1369 802 hsl 128 15 -10 1000 0 0 empty empty empty -2 -8 0 10
-261234 -1 -1 6133 1;
#X obj 1381 823 hsl 128 15 -10 1000 0 0 empty empty empty -2 -8 0 10
-228856 -1 -1 6133 1;
#X obj 1300 793 / 100;
#X obj 1310 803 / 100;
#X obj 1320 813 / 100;
#X obj 1330 823 / 100;
#X obj 1385 848 hsl 128 15 -10 1000 0 0 empty empty empty -2 -8 0 10
-203904 -1 -1 6133 1;
#X obj 1381 868 hsl 128 15 -10 1000 0 0 empty empty empty -2 -8 0 10
-204800 -1 -1 6133 1;
#X obj 1381 883 hsl 128 15 -10 1000 0 0 empty empty empty -2 -8 0 10
-261234 -1 -1 6133 1;
#X obj 1381 898 hsl 128 15 -10 1000 0 0 empty empty empty -2 -8 0 10
-228856 -1 -1 6133 1;
#X obj 1303 858 / 100;
#X obj 1313 868 / 100;
#X obj 1323 878 / 100;
#X obj 1333 888 / 100;
#X obj 1533 744 r seqtime9;
#X obj 1532 761 r seqtime10;
#X obj 1531 776 r seqtime11;
#X obj 1532 795 r seqtime12;
#X obj 1544 852 r seqtime13;
#X obj 1543 869 r seqtime14;
#X obj 1542 884 r seqtime15;
#X obj 1543 901 r seqtime16;
#X obj 412 -2;
#X floatatom 414 859 5 0 0 0 - - -;
#X obj 340 811 line 0 500;
#X obj 1005 485 % \$1;
#X floatatom 1045 520 5 1 16 0 - - -;
#X obj 1061 540 r counto;
#X connect 1 0 3 1;
#X connect 1 0 2 1;
#X connect 1 0 17 0;
#X connect 2 0 161 0;
#X connect 3 0 160 0;
#X connect 6 0 7 0;
#X connect 7 0 8 0;
#X connect 7 0 181 0;
#X connect 8 0 9 0;
#X connect 10 0 25 0;
#X connect 10 0 170 0;
#X connect 10 0 194 0;
#X connect 10 0 61 0;
#X connect 10 0 223 0;
#X connect 11 0 14 0;
#X connect 11 0 15 0;
#X connect 11 0 19 0;
#X connect 13 0 6 0;
#X connect 14 0 2 0;
#X connect 15 0 3 0;
#X connect 16 0 11 1;
#X connect 18 0 19 0;
#X connect 19 0 21 0;
#X connect 21 0 22 0;
#X connect 22 0 24 0;
#X connect 23 0 22 1;
#X connect 24 0 162 0;
#X connect 25 0 26 0;
#X connect 28 0 25 0;
#X connect 30 0 312 0;
#X connect 32 0 33 0;
#X connect 33 0 30 0;
#X connect 34 0 63 0;
#X connect 35 0 311 0;
#X connect 36 0 311 0;
#X connect 37 0 311 0;
#X connect 38 0 311 0;
#X connect 40 0 37 0;
#X connect 41 0 203 0;
#X connect 41 0 228 0;
#X connect 41 0 232 0;
#X connect 42 0 204 0;
#X connect 42 0 229 0;
#X connect 42 0 232 1;
#X connect 43 0 40 0;
#X connect 43 0 230 0;
#X connect 43 0 232 2;
#X connect 44 0 205 0;
#X connect 44 0 231 0;
#X connect 44 0 232 3;
#X connect 46 0 53 0;
#X connect 47 0 53 0;
#X connect 48 0 63 0;
#X connect 49 0 33 0;
#X connect 50 0 46 0;
#X connect 50 0 32 0;
#X connect 50 0 34 0;
#X connect 50 0 122 0;
#X connect 51 0 47 0;
#X connect 51 0 48 0;
#X connect 51 0 49 0;
#X connect 51 0 92 0;
#X connect 51 0 109 0;
#X connect 51 0 54 0;
#X connect 52 0 95 0;
#X connect 52 0 211 0;
#X connect 53 0 55 0;
#X connect 53 0 207 0;
#X connect 54 0 211 0;
#X connect 55 0 56 0;
#X connect 55 0 61 0;
#X connect 56 0 223 0;
#X connect 57 0 58 0;
#X connect 58 0 55 0;
#X connect 60 0 57 0;
#X connect 61 0 223 0;
#X connect 62 0 71 0;
#X connect 63 0 62 0;
#X connect 65 0 113 0;
#X connect 66 0 72 1;
#X connect 66 0 163 0;
#X connect 67 0 33 1;
#X connect 68 0 117 0;
#X connect 69 0 116 0;
#X connect 70 0 114 0;
#X connect 71 0 73 0;
#X connect 71 0 79 0;
#X connect 72 0 67 0;
#X connect 73 0 63 1;
#X connect 73 0 72 0;
#X connect 73 0 101 0;
#X connect 73 0 138 0;
#X connect 74 0 73 0;
#X connect 75 0 73 0;
#X connect 76 0 73 0;
#X connect 77 0 73 0;
#X connect 78 0 73 0;
#X connect 79 0 64 0;
#X connect 79 0 80 0;
#X connect 80 0 65 0;
#X connect 80 1 68 0;
#X connect 80 2 69 0;
#X connect 80 3 70 0;
#X connect 80 4 81 0;
#X connect 81 0 115 0;
#X connect 83 0 73 0;
#X connect 84 0 73 0;
#X connect 86 0 73 0;
#X connect 88 0 52 0;
#X connect 89 0 88 1;
#X connect 90 0 89 0;
#X connect 90 0 210 0;
#X connect 91 0 88 0;
#X connect 92 0 88 0;
#X connect 92 0 54 0;
#X connect 92 0 213 0;
#X connect 93 0 90 0;
#X connect 93 0 91 0;
#X connect 94 0 98 0;
#X connect 95 0 96 0;
#X connect 96 0 94 1;
#X connect 97 0 94 0;
#X connect 99 0 100 0;
#X connect 99 0 107 0;
#X connect 101 0 99 1;
#X connect 102 0 226 0;
#X connect 103 0 226 0;
#X connect 105 0 102 0;
#X connect 105 2 103 0;
#X connect 105 3 104 0;
#X connect 105 4 106 0;
#X connect 107 0 143 0;
#X connect 109 0 99 0;
#X connect 113 0 66 0;
#X connect 114 0 66 0;
#X connect 115 0 66 0;
#X connect 116 0 66 0;
#X connect 117 0 66 0;
#X connect 119 0 120 0;
#X connect 120 0 121 0;
#X connect 121 0 99 0;
#X connect 122 0 119 0;
#X connect 123 0 73 0;
#X connect 124 0 73 0;
#X connect 125 0 73 0;
#X connect 126 0 73 0;
#X connect 127 0 73 0;
#X connect 128 0 73 0;
#X connect 129 0 73 0;
#X connect 130 0 73 0;
#X connect 131 0 73 0;
#X connect 132 0 73 0;
#X connect 133 0 89 0;
#X connect 138 0 88 1;
#X connect 139 0 138 0;
#X connect 140 0 89 0;
#X connect 142 0 101 0;
#X connect 143 0 105 0;
#X connect 143 0 108 0;
#X connect 144 0 132 0;
#X connect 145 0 13 0;
#X connect 146 0 122 0;
#X connect 147 0 41 0;
#X connect 148 0 42 0;
#X connect 149 0 43 0;
#X connect 150 0 44 0;
#X connect 151 0 50 0;
#X connect 152 0 51 0;
#X connect 153 0 132 0;
#X connect 154 0 1 0;
#X connect 155 0 33 0;
#X connect 156 0 63 0;
#X connect 157 0 55 0;
#X connect 159 0 160 1;
#X connect 159 0 161 1;
#X connect 160 0 172 0;
#X connect 161 0 171 0;
#X connect 167 0 18 0;
#X connect 168 0 159 0;
#X connect 169 0 10 0;
#X connect 171 0 176 0;
#X connect 172 0 177 0;
#X connect 173 0 174 0;
#X connect 174 0 172 1;
#X connect 174 0 171 1;
#X connect 178 0 0 1;
#X connect 178 0 185 0;
#X connect 179 0 0 0;
#X connect 179 0 186 0;
#X connect 180 0 223 1;
#X connect 181 0 10 0;
#X connect 181 0 223 0;
#X connect 182 0 169 0;
#X connect 183 0 223 0;
#X connect 184 0 183 0;
#X connect 187 0 73 0;
#X connect 188 0 66 0;
#X connect 189 0 223 0;
#X connect 190 0 61 0;
#X connect 190 1 191 0;
#X connect 191 0 223 0;
#X connect 192 0 193 0;
#X connect 193 0 61 0;
#X connect 199 0 202 0;
#X connect 203 0 35 0;
#X connect 204 0 36 0;
#X connect 205 0 38 0;
#X connect 205 0 223 1;
#X connect 206 0 109 0;
#X connect 208 0 53 0;
#X connect 209 0 90 0;
#X connect 210 0 211 1;
#X connect 210 0 224 0;
#X connect 211 0 218 0;
#X connect 211 0 219 0;
#X connect 211 0 220 0;
#X connect 211 0 221 0;
#X connect 211 0 255 0;
#X connect 211 0 256 0;
#X connect 211 0 257 0;
#X connect 211 0 258 0;
#X connect 211 0 277 0;
#X connect 211 0 278 0;
#X connect 211 0 280 0;
#X connect 211 0 279 0;
#X connect 211 0 281 0;
#X connect 211 0 282 0;
#X connect 211 0 284 0;
#X connect 211 0 283 0;
#X connect 212 0 210 0;
#X connect 213 0 211 0;
#X connect 214 0 213 0;
#X connect 214 0 235 0;
#X connect 215 0 211 0;
#X connect 215 0 234 0;
#X connect 218 0 216 0;
#X connect 218 0 41 0;
#X connect 219 0 217 0;
#X connect 219 0 42 0;
#X connect 220 0 43 0;
#X connect 221 0 44 0;
#X connect 223 0 11 0;
#X connect 225 0 118 0;
#X connect 225 0 227 0;
#X connect 226 0 225 0;
#X connect 227 0 55 0;
#X connect 232 0 233 0;
#X connect 236 0 240 0;
#X connect 237 0 259 0;
#X connect 238 0 241 0;
#X connect 239 0 242 0;
#X connect 243 0 251 0;
#X connect 244 0 252 0;
#X connect 245 0 253 0;
#X connect 246 0 254 0;
#X connect 247 0 243 0;
#X connect 248 0 244 0;
#X connect 249 0 245 0;
#X connect 250 0 246 0;
#X connect 251 0 311 0;
#X connect 252 0 311 0;
#X connect 253 0 311 0;
#X connect 254 0 311 0;
#X connect 255 0 243 0;
#X connect 256 0 245 0;
#X connect 257 0 244 0;
#X connect 258 0 246 0;
#X connect 260 0 41 0;
#X connect 260 0 195 0;
#X connect 260 0 198 0;
#X connect 260 1 42 0;
#X connect 260 1 199 0;
#X connect 260 2 43 0;
#X connect 260 2 196 0;
#X connect 260 2 200 0;
#X connect 260 3 44 0;
#X connect 260 3 197 0;
#X connect 260 3 201 0;
#X connect 260 4 236 0;
#X connect 260 4 243 0;
#X connect 260 5 237 0;
#X connect 260 5 244 0;
#X connect 260 6 238 0;
#X connect 260 6 245 0;
#X connect 260 7 239 0;
#X connect 260 7 246 0;
#X connect 260 8 261 0;
#X connect 260 8 285 0;
#X connect 260 9 262 0;
#X connect 260 9 286 0;
#X connect 260 10 263 0;
#X connect 260 10 287 0;
#X connect 260 11 264 0;
#X connect 260 11 288 0;
#X connect 260 12 265 0;
#X connect 260 12 293 0;
#X connect 260 13 266 0;
#X connect 260 13 294 0;
#X connect 260 14 267 0;
#X connect 260 14 295 0;
#X connect 260 15 268 0;
#X connect 260 15 296 0;
#X connect 261 0 269 0;
#X connect 262 0 270 0;
#X connect 263 0 271 0;
#X connect 264 0 272 0;
#X connect 265 0 273 0;
#X connect 266 0 274 0;
#X connect 267 0 275 0;
#X connect 268 0 276 0;
#X connect 277 0 285 0;
#X connect 278 0 286 0;
#X connect 279 0 288 0;
#X connect 280 0 287 0;
#X connect 281 0 293 0;
#X connect 282 0 294 0;
#X connect 283 0 296 0;
#X connect 284 0 295 0;
#X connect 285 0 289 0;
#X connect 286 0 290 0;
#X connect 287 0 291 0;
#X connect 288 0 292 0;
#X connect 289 0 311 0;
#X connect 290 0 311 0;
#X connect 291 0 311 0;
#X connect 292 0 311 0;
#X connect 293 0 297 0;
#X connect 294 0 298 0;
#X connect 295 0 299 0;
#X connect 296 0 300 0;
#X connect 297 0 311 0;
#X connect 298 0 311 0;
#X connect 299 0 311 0;
#X connect 300 0 311 0;
#X connect 301 0 285 0;
#X connect 302 0 286 0;
#X connect 303 0 287 0;
#X connect 304 0 288 0;
#X connect 305 0 293 0;
#X connect 306 0 294 0;
#X connect 307 0 295 0;
#X connect 308 0 296 0;
#X connect 311 0 223 1;
#X connect 311 0 310 0;
#X connect 312 0 31 0;
#X connect 312 0 260 0;
#X connect 313 0 312 1;
#X connect 314 0 313 0;
#X restore -83 36 pd dahood;
#X obj -83 -12 tgl 15 0 empty empty empty 17 7 0 10 -262144 -1 -1 1
1;
#X msg -83 5 \; pd dsp \$1;
#X obj 31 123 bng 15 250 50 0 empty empty empty 17 7 0 10 -262144 -1
-1;
#X obj 32 140 s openpanel;
#X obj 306 551 s pitchrand;
#X obj 93 236 hsl 150 10 0 1000 0 0 empty empty empty -2 -8 0 10 -252018
-1 -1 7118 1;
#X obj 93 268 hsl 150 10 0 1000 0 0 empty empty empty -2 -8 0 10 -203904
-1 -1 7118 1;
#X obj 92 302 hsl 150 10 0 1000 0 0 empty empty empty -2 -8 0 10 -204800
-1 -1 7118 1;
#X obj 92 335 hsl 150 10 0 1000 0 0 empty empty empty -2 -8 0 10 -252018
-1 -1 7118 1;
#X obj 160 251 s seqtime1;
#X obj 159 284 s seqtime2;
#X obj 158 317 s seqtime3;
#X obj 158 350 s seqtime4;
#X obj -62 379 bng 15 250 50 0 empty empty empty 17 7 0 10 -204786
-1 -1;
#X obj -28 379 bng 15 250 50 0 empty empty empty 17 7 0 10 -261234
-1 -1;
#X obj -62 395 s all;
#X obj -29 395 s nothing;
#X floatatom 152 141 5 0 0 0 - - -;
#X obj 136 158 s samplelength;
#X obj 116 141 bng 15 250 50 0 empty empty empty 17 7 0 10 -262144
-1 -1;
#X obj -70 182 vsl 11 40 0 0.5 0 0 empty empty empty 0 -9 0 10 -258113
-1 -1 3900 1;
#X obj -70 225 s master_volume;
#X obj 393 106 bng 15 250 50 0 empty empty empty 17 7 0 10 -262144
-1 -1;
#X msg 449 105 0;
#X obj 393 122 s seqtime_seq;
#X obj 526 105 bng 15 250 50 0 empty empty empty 17 7 0 10 -262144
-1 -1;
#X msg 582 104 0;
#X obj 526 121 s seqtime_div;
#X obj 203 461 hsl 200 10 -0.01 0.01 0 0 empty empty empty -2 -8 0
10 -204800 -1 -1 0 1;
#X obj 206 483 s pitch;
#X obj 737 55 hsl 100 100 0 1 0 0 empty empty empty -2 -8 0 10 -232576
-1 -1 7704 1;
#X obj 734 38 r display;
#X floatatom 526 155 5 0 0 0 - - -;
#X obj 526 139 r vpos;
#X msg 186 141 1000;
#X msg 219 141 5000;
#X msg 253 141 10000;
#X obj 225 157 s nDat;
#X obj 152 124 r nDat;
#X obj 205 473 hsl 298 10 -0.05 0.05 0 0 empty empty empty -2 -8 0
10 -212800 -1 -1 0 1;
#X floatatom 202 500 15 0 0 0 - - -;
#X floatatom 734 156 5 0 0 0 - - -;
#X msg 126 124 10;
#X obj 839 39 tgl 15 0 empty empty empty 17 7 0 10 -232576 -1 -1 0
1;
#X obj 839 55 s disp;
#X obj 668 480 vsl 15 30 127 0 0 0 empty empty empty 0 -9 0 10 -204786
-1 -1 0 1;
#X msg 662 460 127;
#X obj 634 479 s lpf;
#X obj -19 3 s disp;
#X obj 505 461 r defPitch;
#X floatatom 506 478 11 0 0 0 - - -;
#X obj 685 480 vsl 15 30 0 127 0 0 empty empty empty 0 -9 0 10 -204786
-1 -1 822 1;
#X obj 701 479 s hip;
#X msg 703 461 0;
#X floatatom 653 513 5 0 0 0 - - -;
#X floatatom 686 513 5 0 0 0 - - -;
#X obj 478 665 hsl 128 10 0 1 0 0 empty empty empty -2 -8 0 10 -261682
-1 -1 0 1;
#X obj 475 680 s rev_bal;
#X obj 478 632 hsl 128 10 0 1 0 0 empty empty empty -2 -8 0 10 -203904
-1 -1 0 1;
#X obj 475 648 s rev_damp;
#X obj 475 615 s rev_room;
#X msg 609 583 0;
#X msg 609 615 0;
#X msg 609 648 0;
#X obj 478 600 hsl 128 10 0 1 0 0 empty empty empty -2 -8 0 10 -204800
-1 -1 0 1;
#X obj 609 565 r disp;
#X msg -34 284 0;
#X obj -55 335 s restart;
#X floatatom -61 301 5 0 127 0 - - -;
#X obj -61 286 bng 15 250 50 0 empty empty empty 17 7 0 10 -224821
-1 -1;
#X obj 509 492 bng 15 250 50 0 empty empty empty 17 7 0 10 -257985
-1 -1;
#X obj 225 592 s STOP;
#X obj 225 577 bng 15 250 50 0 empty empty empty 17 7 0 10 -258113
-1 -1;
#X obj 154 576 bng 15 250 50 0 empty empty empty 17 7 0 10 -4034 -1
-1;
#X obj 154 591 s PLAY;
#X msg -49 208 0;
#X msg -65 465 open sample.wav \, start;
#X msg 76 465 stop;
#X obj -77 486 r~ toRecL;
#X obj 70 492 r~ toRecR;
#X obj -8 527 writesf~ 2;
#N canvas 916 413 450 300 bpm 0;
#X obj 125 65 t b b b;
#X msg 141 85 60000;
#X obj 138 109 /;
#X floatatom 192 85 5 0 0 0 - - -;
#X obj 125 49 bng 15 250 50 0 empty empty empty 17 7 0 10 -262144 -1
-1;
#X obj 107 85 metro;
#X floatatom 138 127 5 0 0 0 - - -;
#X obj 157 154 s bpm;
#X obj 240 57 r bpmCtrl;
#X obj 279 139 s bpmData;
#X obj 124 27 r bpmBng;
#X connect 0 0 5 0;
#X connect 0 1 1 0;
#X connect 0 2 3 0;
#X connect 1 0 2 0;
#X connect 2 0 6 0;
#X connect 3 0 2 1;
#X connect 3 0 9 0;
#X connect 4 0 0 0;
#X connect 6 0 7 0;
#X connect 8 0 3 0;
#X connect 10 0 4 0;
#X restore 283 26 pd bpm;
#X obj 264 157 r bpmData;
#X floatatom 264 175 5 0 0 0 - - -;
#X obj 278 125 s bpmCtrl;
#X floatatom 249 109 5 2 999 0 - - -;
#X obj 233 109 bng 15 250 50 0 empty empty empty 17 7 0 10 -262144
-1 -1;
#X obj 226 125 s bpmBng;
#X obj 279 109 s LgthDiv;
#X floatatom 279 93 5 2 128 1 div - -;
#X obj 279 78 bng 15 250 50 0 empty empty empty 17 7 0 10 -262144 -1
-1;
#X obj 508 506 s rstPit;
#X text 247 74 bpm;
#X floatatom 574 599 5 0 0 0 - - -;
#X obj 75 236 bng 15 250 50 0 empty empty empty 17 7 0 10 -252018 -1
-1;
#X obj 75 268 bng 15 250 50 0 empty empty empty 17 7 0 10 -203904 -1
-1;
#X obj 74 302 bng 15 250 50 0 empty empty empty 17 7 0 10 -204800 -1
-1;
#X obj 74 335 bng 15 250 50 0 empty empty empty 17 7 0 10 -252018 -1
-1;
#X obj 75 220 r l1;
#X obj 74 285 r l3;
#X obj 74 318 r l4;
#X obj 75 251 r l2;
#X floatatom 227 345 5 0 0 0 - - -;
#X floatatom 227 313 5 0 0 0 - - -;
#X floatatom 227 278 5 0 0 0 - - -;
#X floatatom 226 247 5 0 0 0 - - -;
#X msg 103 219 0;
#X msg 102 251 0;
#X msg 101 285 0;
#X msg 101 318 0;
#X msg 102 202 ZERO;
#X msg -62 418 0;
#X obj -62 434 s metRst;
#X obj 200 444 r rstPit;
#X msg -23 208 0.5;
#X msg 637 583 1;
#X msg 637 615 1;
#X msg 636 648 1;
#X msg 664 583 0.5;
#X msg 664 615 0.5;
#X obj -30 318 / 127;
#X obj -66 525 *~ 1;
#X obj 70 509 *~ 1;
#X obj 224 613 bng 15 250 50 0 empty empty empty 17 7 0 10 -258113
-1 -1;
#X obj 154 613 bng 15 250 50 0 empty empty empty 17 7 0 10 -4032 -1
-1;
#X obj 154 628 s random_on;
#X obj 224 628 s random_off;
#X obj 662 442 r disp;
#X obj 92 368 hsl 150 10 0 1000 0 0 empty empty empty -2 -8 0 10 -224821
-1 -1 7118 1;
#N canvas 969 232 365 241 metro 1;
#X obj 26 53 metro;
#X obj 26 77 counter;
#X obj 26 5 tgl 15 0 empty empty empty 17 7 0 10 -262144 -1 -1 1 1
;
#X floatatom 26 171 5 0 0 0 - - -;
#X floatatom 70 36 5 0 0 0 - - -;
#X obj 26 188 s cMod;
#X obj 26 106 % \$1;
#X floatatom 74 90 5 1 20 0 - - -;
#X msg 109 89 3;
#X msg 70 19 500;
#X msg 97 19 1000;
#X obj 27 -13 r stcMod;
#X obj 85 -26 r globeBpm;
#X floatatom 85 -7 5 0 0 0 - - -;
#X obj 27 147 + \$1;
#X msg 109 121 10;
#X obj 109 106 bng 15 250 50 0 empty empty empty 17 7 0 10 -262144
-1 -1;
#X floatatom 136 121 5 2 1000 0 - - -;
#X obj 136 106 bng 15 250 50 0 empty empty empty 17 7 0 10 -262144
-1 -1;
#X msg 129 19 2000;
#X text 87 119 bpm;
#X text 73 74 bpmup;
#X connect 0 0 1 0;
#X connect 1 0 6 0;
#X connect 2 0 0 0;
#X connect 2 0 8 0;
#X connect 2 0 9 0;
#X connect 3 0 5 0;
#X connect 4 0 0 1;
#X connect 6 0 14 0;
#X connect 7 0 6 1;
#X connect 8 0 6 1;
#X connect 8 0 16 0;
#X connect 9 0 4 0;
#X connect 10 0 4 0;
#X connect 11 0 2 0;
#X connect 12 0 13 0;
#X connect 14 0 3 0;
#X connect 15 0 14 1;
#X connect 16 0 15 0;
#X connect 17 0 14 1;
#X connect 18 0 17 0;
#X connect 19 0 4 0;
#X restore 331 26 pd metro;
#X obj 333 92 r cMod;
#X msg 222 91 3;
#X obj 324 60 tgl 15 0 empty empty empty 17 7 0 10 -262144 -1 -1 1
1;
#X obj 324 75 s stcMod;
#X floatatom 257 445 5 0 0 0 - - -;
#X obj -83 53 bng 15 250 50 0 empty empty empty 17 7 0 10 -262144 -1
-1;
#X obj 306 536 tgl 15 0 empty empty empty 17 7 0 10 -258431 -1 -1 0
1;
#X msg 619 461 83;
#X msg 662 648 0.46;
#X msg 132 251;
#X msg 132 318;
#X msg 132 284;
#X msg 134 218 675;
#X msg 156 459 0.0021;
#X msg 156 444 0.0021;
#X obj 77 397 hsl 742 10 0 1000 0 0 empty empty empty -2 -8 0 10 -224821
-1 -1 35400 1;
#X obj 74 412 s barmom;
#X obj 89 350 r barmom;
#X obj 414 592 bng 15 250 50 0 empty empty empty 17 7 0 10 -262144
-1 -1;
#X obj 414 557 tgl 15 0 empty empty empty 17 7 0 10 -262144 -1 -1 0
1;
#X floatatom 414 629 5 0 0 0 - - -;
#X obj 414 609 random 5;
#X floatatom 414 666 5 0 0 0 - - -;
#X obj 414 647 * 0.2;
#X floatatom 441 552 5 1 10000 0 - - -;
#X obj 414 574 metro;
#X obj 139 628 tgl 15 0 empty empty empty 17 7 0 10 -262144 -1 -1 0
1;
#X obj 30 86 s counto;
#X floatatom 30 64 5 1 16 0 - - -;
#X floatatom 106 -10 5 1 10000 0 - - -;
#X obj 78 -8 tgl 15 0 empty empty empty 17 7 0 10 -262144 -1 -1 0 1
;
#X obj 79 11 metro;
#X obj 62 10 bng 15 250 50 0 empty empty empty 17 7 0 10 -262144 -1
-1;
#X obj 62 28 random 16;
#X floatatom 62 48 5 1 16 0 - - -;
#X msg 142 -11 500;
#X msg 173 -11 1000;
#X msg 209 -11 2000;
#X obj 282 238 hsl 150 10 0 1000 0 0 empty empty empty -2 -8 0 10 -252018
-1 -1 7118 1;
#X obj 282 270 hsl 150 10 0 1000 0 0 empty empty empty -2 -8 0 10 -203904
-1 -1 7118 1;
#X obj 281 304 hsl 150 10 0 1000 0 0 empty empty empty -2 -8 0 10 -204800
-1 -1 7118 1;
#X obj 281 337 hsl 150 10 0 1000 0 0 empty empty empty -2 -8 0 10 -252018
-1 -1 7118 1;
#X obj 264 238 bng 15 250 50 0 empty empty empty 17 7 0 10 -252018
-1 -1;
#X obj 264 270 bng 15 250 50 0 empty empty empty 17 7 0 10 -203904
-1 -1;
#X obj 263 304 bng 15 250 50 0 empty empty empty 17 7 0 10 -204800
-1 -1;
#X obj 263 337 bng 15 250 50 0 empty empty empty 17 7 0 10 -252018
-1 -1;
#X floatatom 416 347 5 0 0 0 - - -;
#X floatatom 416 315 5 0 0 0 - - -;
#X floatatom 416 280 5 0 0 0 - - -;
#X floatatom 415 249 5 0 0 0 - - -;
#X msg 292 221 0;
#X msg 291 253 0;
#X msg 290 287 0;
#X msg 290 320 0;
#X msg 291 204 ZERO;
#X obj 281 370 hsl 150 10 0 1000 0 0 empty empty empty -2 -8 0 10 -224821
-1 -1 7118 1;
#X msg 321 253;
#X msg 321 320;
#X msg 321 286;
#X msg 323 220 675;
#X obj 278 352 r barmom;
#X obj 264 222 r l5;
#X obj 264 253 r l6;
#X obj 263 287 r l7;
#X obj 263 320 r l8;
#X obj 347 352 s seqtime8;
#X obj 347 319 s seqtime7;
#X obj 348 286 s seqtime6;
#X obj 349 253 s seqtime5;
#X obj 470 239 hsl 150 10 0 1000 0 0 empty empty empty -2 -8 0 10 -252018
-1 -1 7118 1;
#X obj 470 271 hsl 150 10 0 1000 0 0 empty empty empty -2 -8 0 10 -203904
-1 -1 7118 1;
#X obj 469 305 hsl 150 10 0 1000 0 0 empty empty empty -2 -8 0 10 -204800
-1 -1 7118 1;
#X obj 469 338 hsl 150 10 0 1000 0 0 empty empty empty -2 -8 0 10 -252018
-1 -1 7118 1;
#X obj 452 239 bng 15 250 50 0 empty empty empty 17 7 0 10 -252018
-1 -1;
#X obj 452 271 bng 15 250 50 0 empty empty empty 17 7 0 10 -203904
-1 -1;
#X obj 451 305 bng 15 250 50 0 empty empty empty 17 7 0 10 -204800
-1 -1;
#X obj 451 338 bng 15 250 50 0 empty empty empty 17 7 0 10 -252018
-1 -1;
#X floatatom 604 348 5 0 0 0 - - -;
#X floatatom 604 316 5 0 0 0 - - -;
#X floatatom 604 281 5 0 0 0 - - -;
#X floatatom 603 250 5 0 0 0 - - -;
#X msg 480 222 0;
#X msg 479 254 0;
#X msg 478 288 0;
#X msg 478 321 0;
#X msg 479 205 ZERO;
#X obj 469 371 hsl 150 10 0 1000 0 0 empty empty empty -2 -8 0 10 -224821
-1 -1 7118 1;
#X msg 509 254;
#X msg 509 321;
#X msg 509 287;
#X msg 511 221 675;
#X obj 466 353 r barmom;
#X obj 452 223 r l9;
#X obj 452 254 r l10;
#X obj 451 288 r l11;
#X obj 451 321 r l12;
#X obj 537 254 s seqtime9;
#X obj 536 287 s seqtime10;
#X obj 535 320 s seqtime11;
#X obj 535 353 s seqtime12;
#X obj 658 240 hsl 150 10 0 1000 0 0 empty empty empty -2 -8 0 10 -252018
-1 -1 7118 1;
#X obj 658 272 hsl 150 10 0 1000 0 0 empty empty empty -2 -8 0 10 -203904
-1 -1 7118 1;
#X obj 657 306 hsl 150 10 0 1000 0 0 empty empty empty -2 -8 0 10 -204800
-1 -1 7118 1;
#X obj 657 339 hsl 150 10 0 1000 0 0 empty empty empty -2 -8 0 10 -252018
-1 -1 7118 1;
#X obj 640 240 bng 15 250 50 0 empty empty empty 17 7 0 10 -252018
-1 -1;
#X obj 640 272 bng 15 250 50 0 empty empty empty 17 7 0 10 -203904
-1 -1;
#X obj 639 306 bng 15 250 50 0 empty empty empty 17 7 0 10 -204800
-1 -1;
#X obj 639 339 bng 15 250 50 0 empty empty empty 17 7 0 10 -252018
-1 -1;
#X floatatom 792 349 5 0 0 0 - - -;
#X floatatom 792 317 5 0 0 0 - - -;
#X floatatom 792 282 5 0 0 0 - - -;
#X floatatom 791 251 5 0 0 0 - - -;
#X msg 668 223 0;
#X msg 667 255 0;
#X msg 666 289 0;
#X msg 666 322 0;
#X msg 667 206 ZERO;
#X obj 657 372 hsl 150 10 0 1000 0 0 empty empty empty -2 -8 0 10 -224821
-1 -1 7118 1;
#X msg 697 255;
#X msg 697 322;
#X msg 697 288;
#X msg 699 222 675;
#X obj 654 354 r barmom;
#X obj 640 224 r l13;
#X obj 640 255 r l14;
#X obj 639 289 r l15;
#X obj 639 322 r l16;
#X obj 725 255 s seqtime13;
#X obj 724 288 s seqtime14;
#X obj 723 320 s seqtime15;
#X obj 181 15 loadbang;
#X obj 234 32 bng 15 250 50 0 empty empty empty 17 7 0 10 -262144 -1
-1;
#X obj 724 354 s seqtime16;
#N canvas 134 378 450 300 rand 0;
#X obj 13 -116 random 1000;
#X floatatom 12 -97 5 0 0 0 - - -;
#X obj 81 -157 bng 15 250 50 0 empty empty empty 17 7 0 10 -262144
-1 -1;
#X obj 176 -111 random 1000;
#X floatatom 175 -92 5 0 0 0 - - -;
#X obj 244 -152 bng 15 250 50 0 empty empty empty 17 7 0 10 -262144
-1 -1;
#X obj 14 1 random 1000;
#X floatatom 13 20 5 0 0 0 - - -;
#X obj 82 -40 bng 15 250 50 0 empty empty empty 17 7 0 10 -262144 -1
-1;
#X obj 245 -18 s rand4;
#X obj 178 -18 r rand4;
#X obj 177 5 random 1000;
#X floatatom 176 24 5 0 0 0 - - -;
#X obj 245 -36 bng 15 250 50 0 empty empty empty 17 7 0 10 -262144
-1 -1;
#X obj 14 -139 r rand1;
#X obj 81 -139 s rand1;
#X obj 82 -22 s rand3;
#X obj 15 -22 r rand3;
#X obj 244 -134 s rand2;
#X obj 177 -133 r rand2;
#X obj 192 -70 r randall;
#X obj 74 -86 s rr1;
#X obj 269 -85 s rr2;
#X obj 16 46 s rr3;
#X obj 180 48 s rr4;
#X connect 0 0 1 0;
#X connect 1 0 21 0;
#X connect 2 0 15 0;
#X connect 3 0 4 0;
#X connect 4 0 22 0;
#X connect 5 0 18 0;
#X connect 6 0 7 0;
#X connect 7 0 23 0;
#X connect 8 0 16 0;
#X connect 10 0 11 0;
#X connect 11 0 12 0;
#X connect 12 0 24 0;
#X connect 13 0 9 0;
#X connect 14 0 0 0;
#X connect 17 0 6 0;
#X connect 19 0 3 0;
#X connect 20 0 2 0;
#X connect 20 0 5 0;
#X connect 20 0 8 0;
#X connect 20 0 13 0;
#X restore -80 72 pd rand;
#X obj 56 198 r rr1;
#X obj 252 203 r rr2;
#X obj 445 205 r rr3;
#X obj 628 206 r rr4;
#X obj 155 668 s randall;
#X obj 155 652 bng 15 250 50 0 empty empty empty 17 7 0 10 -232576
-1 -1;
#X obj 225 651 bng 15 250 50 0 empty empty empty 17 7 0 10 -262144
-1 -1;
#X obj 225 667 s mom;
#X obj 40 380 r mom;
#X obj 95 600 keyup;
#X floatatom 95 618 5 0 0 0 - - -;
#X obj 95 635 sel 49;
#X obj 301 599 keyup;
#X floatatom 301 617 5 0 0 0 - - -;
#X obj 301 634 sel 50;
#X obj -49 153 keyup;
#X floatatom -49 171 5 0 0 0 - - -;
#X obj -49 187 sel 48;
#X floatatom -116 222 5 0 0 0 - - -;
#X obj -6 154 keyup;
#X floatatom -6 172 5 0 0 0 - - -;
#X obj -7 188 sel 57;
#X obj 97 542 keyup;
#X floatatom 97 560 5 0 0 0 - - -;
#X obj 97 578 sel 51;
#X obj 246 530 keyup;
#X floatatom 246 548 5 0 0 0 - - -;
#X obj 246 567 sel 52;
#X obj 451 36 keyup;
#X floatatom 451 54 5 0 0 0 - - -;
#X obj 389 35 keyup;
#X floatatom 389 53 5 0 0 0 - - -;
#X obj 451 72 sel 56;
#X obj 389 71 sel 55;
#X msg 294 77 9;
#X msg 248 91 19;
#X text 749 2 5 loop is a beautiful thing;
#X obj 450 17 r STOP;
#X obj 393 12 r PLAY;
#X obj 149 514 keyup;
#X floatatom 149 532 5 0 0 0 - - -;
#X obj 197 518 keyup;
#X floatatom 197 536 5 0 0 0 - - -;
#X obj 149 551 sel 57;
#X obj 197 554 sel 48;
#X msg 729 461 36;
#X obj 691 531 keyup;
#X floatatom 691 549 5 0 0 0 - - -;
#X obj 735 531 keyup;
#X floatatom 735 549 5 0 0 0 - - -;
#X obj 692 567 sel 59;
#X obj 735 567 sel 39;
#X obj 699 595 keyup;
#X floatatom 699 613 5 0 0 0 - - -;
#X obj 743 594 keyup;
#X floatatom 743 612 5 0 0 0 - - -;
#X obj 700 631 sel 44;
#X obj 743 630 sel 46;
#X floatatom 787 612 5 0 0 0 - - -;
#X obj 787 630 sel 47;
#X obj 787 594 keyup;
#X floatatom 871 580 5 0 0 0 - - -;
#X obj 871 562 keyup;
#X obj 871 598 sel 93;
#X floatatom 827 579 5 0 0 0 - - -;
#X obj 827 561 keyup;
#X obj 827 597 sel 91;
#X floatatom 915 580 5 0 0 0 - - -;
#X obj 915 562 keyup;
#X obj 915 598 sel 112;
#X obj 343 508 keyup;
#X floatatom 380 512 5 0 0 0 - - -;
#X obj 344 531 sel 53;
#X obj 324 44 r disp;
#X obj 154 497 r disp;
#X obj 440 512 sel 54;
#X msg 31 3 1;
#X connect 1 0 2 0;
#X connect 1 0 49 0;
#X connect 1 0 136 0;
#X connect 1 0 261 0;
#X connect 1 0 341 0;
#X connect 3 0 4 0;
#X connect 6 0 106 0;
#X connect 6 0 10 0;
#X connect 7 0 11 0;
#X connect 7 0 105 0;
#X connect 8 0 12 0;
#X connect 8 0 104 0;
#X connect 9 0 13 0;
#X connect 9 0 103 0;
#X connect 14 0 16 0;
#X connect 15 0 17 0;
#X connect 18 0 19 0;
#X connect 20 0 18 0;
#X connect 21 0 22 0;
#X connect 21 0 283 0;
#X connect 23 0 25 0;
#X connect 24 0 25 0;
#X connect 26 0 28 0;
#X connect 27 0 28 0;
#X connect 29 0 30 0;
#X connect 29 0 41 0;
#X connect 31 0 42 0;
#X connect 32 0 31 0;
#X connect 34 0 33 0;
#X connect 35 0 38 0;
#X connect 36 0 38 0;
#X connect 37 0 38 0;
#X connect 39 0 18 0;
#X connect 39 0 20 0;
#X connect 40 0 30 0;
#X connect 40 0 41 0;
#X connect 43 0 18 0;
#X connect 43 0 19 0;
#X connect 44 0 45 0;
#X connect 46 0 48 0;
#X connect 46 0 55 0;
#X connect 47 0 48 0;
#X connect 47 0 46 0;
#X connect 50 0 51 0;
#X connect 52 0 53 0;
#X connect 52 0 56 0;
#X connect 54 0 53 0;
#X connect 54 0 52 0;
#X connect 57 0 58 0;
#X connect 59 0 60 0;
#X connect 62 0 65 0;
#X connect 63 0 59 0;
#X connect 64 0 57 0;
#X connect 65 0 61 0;
#X connect 66 0 62 0;
#X connect 66 0 63 0;
#X connect 66 0 64 0;
#X connect 67 0 68 0;
#X connect 67 0 69 0;
#X connect 69 0 68 0;
#X connect 69 0 121 0;
#X connect 70 0 69 0;
#X connect 71 0 92 0;
#X connect 71 0 51 0;
#X connect 73 0 72 0;
#X connect 74 0 75 0;
#X connect 76 0 22 0;
#X connect 77 0 81 0;
#X connect 78 0 81 0;
#X connect 79 0 122 0;
#X connect 80 0 123 0;
#X connect 83 0 84 0;
#X connect 86 0 88 0;
#X connect 86 0 85 0;
#X connect 87 0 88 0;
#X connect 87 0 86 0;
#X connect 90 0 89 0;
#X connect 90 0 87 0;
#X connect 91 0 90 0;
#X connect 99 0 95 0;
#X connect 100 0 97 0;
#X connect 101 0 98 0;
#X connect 102 0 96 0;
#X connect 107 0 6 0;
#X connect 108 0 7 0;
#X connect 109 0 8 0;
#X connect 110 0 9 0;
#X connect 111 0 110 0;
#X connect 111 0 109 0;
#X connect 111 0 108 0;
#X connect 111 0 107 0;
#X connect 112 0 113 0;
#X connect 114 0 29 0;
#X connect 115 0 22 0;
#X connect 116 0 65 0;
#X connect 117 0 59 0;
#X connect 118 0 57 0;
#X connect 119 0 65 0;
#X connect 120 0 59 0;
#X connect 121 0 68 0;
#X connect 122 0 81 0;
#X connect 123 0 81 1;
#X connect 124 0 127 0;
#X connect 124 0 157 0;
#X connect 125 0 126 0;
#X connect 125 0 157 0;
#X connect 128 0 47 0;
#X connect 128 0 310 0;
#X connect 129 0 6 0;
#X connect 129 0 7 0;
#X connect 129 0 8 0;
#X connect 129 0 9 0;
#X connect 131 0 86 0;
#X connect 132 0 86 0;
#X connect 132 0 87 0;
#X connect 133 0 134 0;
#X connect 137 0 5 0;
#X connect 138 0 48 0;
#X connect 138 0 46 0;
#X connect 139 0 57 0;
#X connect 140 0 7 0;
#X connect 141 0 9 0;
#X connect 142 0 8 0;
#X connect 143 0 6 0;
#X connect 144 0 40 0;
#X connect 145 0 29 0;
#X connect 146 0 147 0;
#X connect 148 0 129 0;
#X connect 149 0 152 0;
#X connect 150 0 156 0;
#X connect 151 0 154 0;
#X connect 152 0 151 0;
#X connect 154 0 153 0;
#X connect 154 0 57 0;
#X connect 155 0 156 1;
#X connect 156 0 149 0;
#X connect 159 0 158 0;
#X connect 160 0 162 1;
#X connect 161 0 162 0;
#X connect 162 0 163 0;
#X connect 163 0 164 0;
#X connect 164 0 165 0;
#X connect 165 0 159 0;
#X connect 166 0 162 1;
#X connect 167 0 162 1;
#X connect 168 0 162 1;
#X connect 169 0 180 0;
#X connect 169 0 199 0;
#X connect 170 0 179 0;
#X connect 170 0 198 0;
#X connect 171 0 178 0;
#X connect 171 0 197 0;
#X connect 172 0 177 0;
#X connect 172 0 196 0;
#X connect 181 0 169 0;
#X connect 182 0 170 0;
#X connect 183 0 171 0;
#X connect 184 0 172 0;
#X connect 185 0 184 0;
#X connect 185 0 183 0;
#X connect 185 0 182 0;
#X connect 185 0 181 0;
#X connect 186 0 169 0;
#X connect 186 0 170 0;
#X connect 186 0 171 0;
#X connect 186 0 172 0;
#X connect 187 0 170 0;
#X connect 188 0 172 0;
#X connect 189 0 171 0;
#X connect 190 0 169 0;
#X connect 191 0 186 0;
#X connect 192 0 173 0;
#X connect 193 0 174 0;
#X connect 194 0 175 0;
#X connect 195 0 176 0;
#X connect 200 0 211 0;
#X connect 200 0 227 0;
#X connect 201 0 210 0;
#X connect 201 0 228 0;
#X connect 202 0 209 0;
#X connect 202 0 229 0;
#X connect 203 0 208 0;
#X connect 203 0 230 0;
#X connect 212 0 200 0;
#X connect 213 0 201 0;
#X connect 214 0 202 0;
#X connect 215 0 203 0;
#X connect 216 0 215 0;
#X connect 216 0 214 0;
#X connect 216 0 213 0;
#X connect 216 0 212 0;
#X connect 217 0 200 0;
#X connect 217 0 201 0;
#X connect 217 0 202 0;
#X connect 217 0 203 0;
#X connect 218 0 201 0;
#X connect 219 0 203 0;
#X connect 220 0 202 0;
#X connect 221 0 200 0;
#X connect 222 0 217 0;
#X connect 223 0 204 0;
#X connect 224 0 205 0;
#X connect 225 0 206 0;
#X connect 226 0 207 0;
#X connect 231 0 242 0;
#X connect 231 0 258 0;
#X connect 232 0 241 0;
#X connect 232 0 259 0;
#X connect 233 0 240 0;
#X connect 233 0 260 0;
#X connect 234 0 239 0;
#X connect 234 0 263 0;
#X connect 243 0 231 0;
#X connect 244 0 232 0;
#X connect 245 0 233 0;
#X connect 246 0 234 0;
#X connect 247 0 246 0;
#X connect 247 0 245 0;
#X connect 247 0 244 0;
#X connect 247 0 243 0;
#X connect 248 0 231 0;
#X connect 248 0 232 0;
#X connect 248 0 233 0;
#X connect 248 0 234 0;
#X connect 249 0 232 0;
#X connect 250 0 234 0;
#X connect 251 0 233 0;
#X connect 252 0 231 0;
#X connect 253 0 248 0;
#X connect 254 0 235 0;
#X connect 255 0 236 0;
#X connect 256 0 237 0;
#X connect 257 0 238 0;
#X connect 261 0 262 0;
#X connect 262 0 300 0;
#X connect 262 0 299 0;
#X connect 265 0 129 0;
#X connect 266 0 186 0;
#X connect 267 0 217 0;
#X connect 268 0 248 0;
#X connect 270 0 269 0;
#X connect 271 0 272 0;
#X connect 273 0 146 0;
#X connect 274 0 275 0;
#X connect 275 0 276 0;
#X connect 276 0 270 0;
#X connect 277 0 278 0;
#X connect 278 0 279 0;
#X connect 279 0 271 0;
#X connect 280 0 281 0;
#X connect 281 0 282 0;
#X connect 282 0 76 0;
#X connect 284 0 285 0;
#X connect 285 0 286 0;
#X connect 286 0 115 0;
#X connect 287 0 288 0;
#X connect 288 0 289 0;
#X connect 289 0 125 0;
#X connect 290 0 291 0;
#X connect 291 0 292 0;
#X connect 292 0 124 0;
#X connect 293 0 294 0;
#X connect 294 0 297 0;
#X connect 295 0 296 0;
#X connect 296 0 298 0;
#X connect 297 0 24 0;
#X connect 298 0 23 0;
#X connect 299 0 90 0;
#X connect 300 0 86 0;
#X connect 300 0 87 0;
#X connect 302 0 24 0;
#X connect 303 0 23 0;
#X connect 304 0 305 0;
#X connect 305 0 308 0;
#X connect 306 0 307 0;
#X connect 307 0 309 0;
#X connect 308 0 74 0;
#X connect 309 0 73 0;
#X connect 310 0 53 0;
#X connect 310 0 52 0;
#X connect 311 0 312 0;
#X connect 312 0 315 0;
#X connect 313 0 314 0;
#X connect 314 0 316 0;
#X connect 315 0 62 0;
#X connect 316 0 116 0;
#X connect 317 0 318 0;
#X connect 318 0 321 0;
#X connect 319 0 320 0;
#X connect 320 0 322 0;
#X connect 321 0 64 0;
#X connect 322 0 118 0;
#X connect 323 0 324 0;
#X connect 324 0 139 0;
#X connect 325 0 323 0;
#X connect 326 0 328 0;
#X connect 327 0 326 0;
#X connect 328 0 117 0;
#X connect 329 0 331 0;
#X connect 330 0 329 0;
#X connect 331 0 120 0;
#X connect 332 0 334 0;
#X connect 333 0 332 0;
#X connect 334 0 63 0;
#X connect 335 0 336 0;
#X connect 336 0 337 0;
#X connect 336 0 340 0;
#X connect 337 0 137 0;
#X connect 338 0 133 0;
#X connect 339 0 74 0;
#X connect 340 0 71 0;
#X connect 341 0 159 0;
